<?xml version="1.0" standalone="no"?>
<!DOCTYPE svg PUBLIC "-//W3C//DTD SVG 20010904//EN"
 "http://www.w3.org/TR/2001/REC-SVG-20010904/DTD/svg10.dtd">
<svg version="1.0" xmlns="http://www.w3.org/2000/svg"
 width="1024.000000pt" height="1024.000000pt" viewBox="0 0 1024.000000 1024.000000"
 preserveAspectRatio="xMidYMid meet">
<metadata>
Created by potrace 1.14, written by Peter Selinger 2001-2017
</metadata>
<g transform="translate(0.000000,1024.000000) scale(0.100000,-0.100000)"
fill="#000000" stroke="none">
<path d="M0 9310 l0 -930 70 -71 c38 -39 70 -74 70 -78 0 -11 34 -41 46 -41 5
0 2 5 -6 10 -10 6 1 8 37 6 29 -2 50 0 47 5 -2 5 6 11 20 15 17 4 23 11 19 21
-5 13 -3 14 17 3 12 -7 20 -8 16 -2 -3 5 0 14 7 20 14 11 48 12 41 1 -2 -5
-11 -6 -19 -2 -8 3 -15 0 -15 -7 0 -6 10 -10 23 -9 28 3 59 -10 51 -22 -3 -5
-3 -9 1 -9 3 0 10 12 15 26 6 14 15 22 21 18 8 -4 9 1 4 15 -4 13 -1 28 6 37
6 8 9 17 5 21 -3 3 -6 1 -6 -7 0 -10 -3 -10 -15 0 -16 13 -21 35 -6 25 5 -3
12 -1 16 5 3 5 1 10 -6 10 -7 0 -6 8 5 25 15 23 14 29 -6 26 -5 0 -8 3 -8 9 0
15 16 12 34 -6 9 -8 16 -12 16 -7 0 5 -4 13 -10 19 -5 5 -6 24 0 49 9 40 5 59
-8 38 -7 -12 -62 -13 -62 -2 0 12 29 18 35 8 4 -5 11 -7 16 -3 6 3 4 16 -6 31
-9 14 -14 27 -11 31 3 3 6 0 6 -7 0 -7 4 -9 10 -6 6 3 10 -1 10 -10 0 -9 4
-14 9 -11 11 7 2 56 -11 56 -5 0 -6 5 -3 10 6 10 -2 13 -45 12 -17 -1 -19 1
-7 4 9 3 15 10 12 15 -9 14 19 11 34 -3 9 -9 12 -9 7 -1 -3 6 -2 23 4 37 6 17
6 26 0 26 -6 0 -10 4 -10 8 0 5 7 9 15 9 8 0 11 -5 8 -10 -4 -6 -1 -7 6 -3 7
5 10 14 7 21 -3 8 2 19 11 27 14 11 16 10 11 -9 -3 -12 -3 -22 1 -21 32 4 39
-3 28 -27 -7 -14 -16 -23 -22 -21 -5 2 -18 7 -27 11 -14 5 -18 2 -18 -14 0
-33 51 -23 68 13 8 16 19 25 27 22 9 -3 12 0 8 10 -3 7 -16 14 -29 14 -28 0
-31 14 -6 32 10 7 17 20 16 28 -3 41 -4 42 -20 25 -15 -14 -17 -14 -30 2 -19
25 -17 38 2 18 9 -9 19 -13 22 -10 4 3 2 9 -3 13 -6 4 -11 14 -13 22 -3 11 2
10 17 -4 21 -19 21 -19 21 3 0 14 -4 20 -11 15 -7 -4 -10 1 -7 11 1 10 13 19
24 20 28 2 59 31 41 38 -7 3 -5 6 6 6 15 1 15 4 5 21 -7 11 -16 20 -21 20 -4
0 -5 -4 -2 -10 3 -5 1 -10 -4 -10 -6 0 -11 8 -11 19 0 13 6 18 24 16 18 -2 23
1 19 11 -4 10 0 12 13 8 17 -6 17 -5 -1 9 l-20 16 20 2 c11 1 23 1 28 0 24 -4
33 -7 38 -14 3 -5 9 -2 12 6 4 11 0 15 -13 12 -22 -4 -53 21 -45 36 4 5 -1 9
-9 9 -18 0 -20 8 -7 29 6 9 6 23 -1 35 -8 17 -8 19 2 9 7 -7 13 -25 14 -40 1
-15 6 -27 12 -26 8 1 10 -6 6 -19 -5 -21 -5 -21 15 -2 l20 19 -21 17 c-18 15
-19 19 -6 27 8 6 19 6 25 2 5 -5 19 -7 30 -5 10 1 26 -3 34 -9 12 -9 13 -9 7
1 -4 7 -2 12 4 12 6 0 8 5 5 11 -4 6 1 17 11 25 18 14 17 15 -6 8 -21 -6 -23
-5 -13 8 11 12 7 14 -28 14 -24 -1 -46 5 -52 13 -10 12 -8 13 11 8 18 -4 22
-2 18 10 -4 9 -1 13 6 10 7 -2 12 -11 10 -18 -2 -9 4 -7 17 5 26 23 19 36 -17
30 -18 -3 -23 -2 -13 5 7 5 10 14 7 20 -9 14 0 14 24 1 13 -7 21 -7 25 0 4 6
11 8 16 5 5 -4 9 1 9 11 0 13 -3 14 -14 4 -11 -9 -19 -9 -33 0 -13 8 -13 10
-2 7 20 -6 46 32 29 43 -9 5 -9 9 -1 14 19 12 12 24 -11 18 -22 -5 -22 -5 -5
12 9 10 15 21 13 25 -3 4 5 8 16 8 20 2 20 1 2 -12 -16 -12 -16 -14 -3 -15 9
0 21 11 27 25 9 20 8 26 -6 35 -15 10 -14 11 5 7 14 -3 29 3 43 18 l21 23 -28
22 c-15 12 -21 21 -13 20 26 -4 40 0 40 11 0 5 -4 8 -9 4 -6 -3 -9 4 -8 15 1
11 7 20 14 20 7 0 13 6 13 13 0 7 9 18 20 25 25 15 25 11 0 -18 -16 -19 -18
-26 -7 -39 11 -14 10 -15 -7 -1 -18 14 -19 14 -6 -7 11 -17 17 -19 28 -11 9 8
10 14 2 22 -16 16 -12 26 13 26 16 0 18 3 8 9 -10 6 -11 13 -2 29 16 29 14 36
-5 18 -19 -19 -34 -12 -34 15 0 19 -11 25 -23 12 -4 -3 0 -14 8 -23 14 -15 14
-19 -2 -31 -15 -12 -16 -12 -10 4 3 9 3 17 -2 17 -12 0 -32 -26 -25 -33 3 -3
-1 -4 -10 -3 -9 1 -22 8 -29 16 -10 12 -9 12 4 2 13 -10 20 -7 40 14 13 14 23
28 21 30 -1 2 1 12 6 20 6 12 11 13 16 5 13 -20 27 -12 16 9 -9 16 -8 19 7 14
17 -5 17 -5 1 9 -10 8 -18 18 -18 22 0 4 7 2 14 -5 8 -6 27 -10 42 -8 18 2 29
-2 31 -12 4 -12 3 -12 -5 -1 -7 9 -12 10 -16 2 -4 -6 -3 -11 3 -11 6 0 8 -7 5
-15 -4 -8 -1 -15 5 -15 6 0 10 3 9 8 -1 4 3 17 10 30 8 14 9 22 2 22 -5 0 -10
5 -10 11 0 5 6 7 13 3 9 -5 9 -4 0 6 -10 11 -15 11 -29 -1 -15 -12 -16 -11
-10 17 5 23 2 36 -9 48 -9 9 -12 16 -7 16 5 0 15 -6 22 -14 6 -8 19 -12 28
-10 15 5 15 4 0 -9 -22 -17 -23 -24 -4 -24 8 0 14 5 13 11 -1 5 5 11 14 13 18
4 33 -33 18 -41 -5 -2 -4 -3 3 -2 19 4 18 47 -1 53 -9 2 -25 9 -36 14 -17 8
-16 9 7 4 17 -3 26 -1 24 8 -3 24 -17 36 -34 31 -14 -5 -15 -4 -2 5 8 6 10 11
4 11 -7 0 -14 10 -17 22 -5 19 -3 18 17 -7 23 -28 49 -30 30 -3 -5 7 -9 22 -9
33 0 15 8 20 33 22 20 2 31 -1 27 -7 -3 -6 -2 -10 3 -10 16 0 23 30 11 48 -10
16 -10 15 -5 0 3 -10 2 -18 -3 -18 -5 0 -11 9 -14 20 -3 11 -1 20 5 20 6 0 7
11 3 28 -6 25 -5 26 8 8 17 -23 50 -15 41 9 -3 8 -11 15 -16 15 -6 0 -8 -7 -4
-15 3 -8 1 -15 -4 -15 -6 0 -10 11 -10 25 0 22 3 23 24 15 13 -5 27 -6 30 -3
3 4 6 1 6 -5 0 -7 -4 -12 -8 -12 -4 0 -8 -8 -8 -18 0 -10 6 -19 13 -19 7 0 12
7 11 16 -2 9 3 15 9 14 7 -2 12 0 12 5 -4 22 3 34 16 29 8 -4 17 -2 20 3 4 6
-1 10 -9 10 -9 0 -16 6 -16 13 0 7 -9 13 -20 14 -11 1 -20 -2 -20 -8 0 -5 -5
-9 -11 -9 -5 0 -7 5 -4 10 3 6 -1 10 -9 10 -10 0 -13 6 -9 16 4 12 8 13 14 3
16 -27 92 -11 88 18 0 4 4 9 9 11 5 1 9 -7 8 -19 0 -12 5 -24 12 -26 7 -3 10
1 6 11 -4 10 0 18 10 22 9 3 16 10 16 14 0 5 -295 9 -655 10 l-655 0 0 -930z
m1217 898 c-3 -8 -6 -5 -6 6 -1 11 2 17 5 13 3 -3 4 -12 1 -19z m-90 -50 c-3
-7 -5 -2 -5 12 0 14 2 19 5 13 2 -7 2 -19 0 -25z m44 -16 c-7 -2 -18 1 -23 6
-8 8 -4 9 13 5 13 -4 18 -8 10 -11z m30 -9 c-12 -20 -14 -14 -5 12 4 9 9 14
11 11 3 -2 0 -13 -6 -23z m-150 -60 c13 -16 12 -17 -3 -4 -17 13 -22 21 -14
21 2 0 10 -8 17 -17z m29 -56 c0 -8 -3 -8 -11 0 -6 6 -19 9 -27 5 -14 -5 -15
-4 -2 10 16 17 40 7 40 -15z m-310 -431 c0 -2 -7 -7 -16 -10 -8 -3 -12 -2 -9
4 6 10 25 14 25 6z m84 -46 c7 0 13 -7 13 -15 0 -8 -4 -15 -9 -15 -4 0 -8 5
-8 11 0 8 -5 7 -15 -1 -9 -7 -18 -10 -22 -7 -3 4 1 9 9 12 8 3 14 16 13 28 -1
12 0 14 2 5 2 -10 10 -18 17 -18z m-34 15 c0 -2 -10 -9 -22 -15 -22 -11 -22
-10 -4 4 21 17 26 19 26 11z m-19 -78 c-10 -9 -11 -8 -5 6 3 10 9 15 12 12 3
-3 0 -11 -7 -18z m-76 -47 c-3 -5 5 -11 17 -13 20 -4 20 -4 -4 -6 -21 -1 -26
3 -25 18 0 11 5 17 9 15 5 -3 6 -9 3 -14z m53 -48 c2 -7 -1 -12 -8 -12 -6 0
-8 5 -5 10 3 6 1 10 -5 10 -7 0 -10 -7 -6 -15 7 -20 -4 -46 -16 -39 -6 4 -6 9
2 14 8 5 7 11 -4 23 -15 14 -14 16 2 20 23 6 35 3 40 -11z m17 -22 c-3 -5 -12
-10 -18 -10 -7 0 -6 4 3 10 19 12 23 12 15 0z m-111 -24 c-8 -20 14 -30 32
-15 12 10 13 9 8 -5 -3 -9 -12 -16 -19 -16 -17 0 -38 27 -30 40 9 15 15 12 9
-4z m-34 -56 c-8 -5 -17 -7 -19 -4 -3 3 1 9 9 14 8 5 17 7 19 4 3 -3 -1 -9 -9
-14z m36 -55 c-2 -7 0 -18 5 -24 6 -8 5 -8 -3 -1 -15 13 -22 54 -7 45 6 -4 8
-13 5 -20z m-26 -12 c0 -19 -13 -9 -16 12 -1 8 2 13 7 9 5 -3 9 -12 9 -21z
m110 -3 c0 -5 -7 -10 -16 -10 -8 0 -12 5 -9 10 3 6 10 10 16 10 5 0 9 -4 9
-10z m-47 -20 c3 -11 1 -18 -4 -14 -5 3 -9 12 -9 20 0 20 7 17 13 -6z m29 -22
c-7 -7 -12 -8 -12 -2 0 14 12 26 19 19 2 -3 -1 -11 -7 -17z m-133 -2 c9 -11 9
-16 0 -22 -8 -5 -9 -3 -4 6 6 9 4 12 -7 8 -9 -4 -15 0 -15 8 0 18 11 18 26 0z
m21 -81 c5 3 12 0 16 -6 4 -7 3 -9 -3 -6 -12 7 -36 -16 -27 -25 3 -3 0 -9 -6
-13 -7 -5 -9 2 -6 22 2 15 5 39 7 53 2 24 2 24 6 -3 2 -15 8 -25 13 -22z m-63
-61 c-3 -3 -12 -4 -19 -1 -8 3 -5 6 6 6 11 1 17 -2 13 -5z m-27 -64 c0 -5 -7
-7 -15 -4 -8 4 -15 8 -15 10 0 2 7 4 15 4 8 0 15 -4 15 -10z m50 -22 c0 -6 -7
-5 -15 2 -12 10 -15 10 -15 0 0 -8 -3 -11 -6 -7 -4 3 -4 14 0 23 5 13 9 14 21
4 8 -7 15 -17 15 -22z m-106 -29 c-3 -5 -10 -7 -15 -3 -5 3 -7 10 -3 15 3 5
10 7 15 3 5 -3 7 -10 3 -15z m-34 -8 c0 -6 -5 -13 -12 -17 -6 -4 -8 -3 -4 4 3
6 -2 13 -11 15 -14 4 -13 5 5 6 12 0 22 -3 22 -8z m41 -36 c-4 -17 -6 -18 -9
-2 -2 9 -8 15 -13 12 -5 -4 -9 -2 -9 4 0 5 8 9 19 8 13 -1 17 -6 12 -22z m3
-46 c-12 -20 18 -28 43 -12 14 10 23 11 23 4 0 -6 -5 -11 -11 -11 -5 0 -8 -4
-5 -9 8 -12 -13 -19 -36 -13 -25 6 -35 52 -12 52 3 0 2 -5 -2 -11z m-50 -110
c-3 -5 -10 -7 -15 -3 -5 3 -7 10 -3 15 3 5 10 7 15 3 5 -3 7 -10 3 -15z m-24
-19 c0 -5 -2 -10 -4 -10 -3 0 -8 5 -11 10 -3 6 -1 10 4 10 6 0 11 -4 11 -10z
m35 -9 c-3 -6 -11 -11 -16 -11 -5 0 -4 6 3 14 14 16 24 13 13 -3z m-55 -71 c0
-5 -5 -10 -11 -10 -5 0 -7 5 -4 10 3 6 8 10 11 10 2 0 4 -4 4 -10z m45 0 c3
-5 1 -10 -4 -10 -6 0 -11 5 -11 10 0 6 2 10 4 10 3 0 8 -4 11 -10z m-51 -45
c-4 -8 -11 -12 -16 -9 -6 4 -5 10 3 15 19 12 19 11 13 -6z m11 -75 c3 -6 -1
-7 -9 -4 -18 7 -21 14 -7 14 6 0 13 -4 16 -10z m55 -2 c0 -4 -6 -8 -14 -8 -8
0 -17 4 -20 8 -2 4 4 8 15 8 10 0 19 -4 19 -8z m-36 -35 c4 -10 4 -14 0 -10
-4 4 -14 1 -22 -6 -13 -10 -14 -9 -3 11 14 27 17 27 25 5z m36 5 c0 -4 -4 -8
-9 -8 -6 0 -12 4 -15 8 -3 5 1 9 9 9 8 0 15 -4 15 -9z m-30 -77 c0 -6 -4 -12
-8 -15 -5 -3 -9 1 -9 9 0 8 4 15 9 15 4 0 8 -4 8 -9z m2 -113 c-5 -5 -9 5 -10
24 0 31 1 31 9 9 6 -14 6 -28 1 -33z"/>
<path d="M1331 10214 c0 -11 3 -14 6 -6 3 7 2 16 -1 19 -3 4 -6 -2 -5 -13z"/>
<path d="M1301 10124 c0 -11 3 -14 6 -6 3 7 2 16 -1 19 -3 4 -6 -2 -5 -13z"/>
<path d="M1246 10098 c3 -5 10 -6 15 -3 13 9 11 12 -6 12 -8 0 -12 -4 -9 -9z"/>
<path d="M1220 10070 c0 -5 5 -10 11 -10 5 0 7 5 4 10 -3 6 -8 10 -11 10 -2 0
-4 -4 -4 -10z"/>
<path d="M1142 10050 c16 -24 22 -25 39 -3 12 15 12 16 -3 10 -10 -3 -18 -2
-18 3 0 6 -7 10 -15 10 -13 0 -13 -3 -3 -20z"/>
<path d="M1200 10020 c0 -5 5 -10 10 -10 6 0 10 5 10 10 0 6 -4 10 -10 10 -5
0 -10 -4 -10 -10z"/>
<path d="M1090 9970 c-12 -7 -12 -12 -3 -21 10 -10 14 -9 19 5 8 22 2 27 -16
16z"/>
<path d="M1055 9960 c3 -5 8 -10 11 -10 2 0 4 5 4 10 0 6 -5 10 -11 10 -5 0
-7 -4 -4 -10z"/>
<path d="M1073 9916 c0 -17 3 -23 7 -16 4 7 14 17 21 22 11 8 10 9 -3 5 -9 -3
-19 -1 -21 6 -2 7 -4 -1 -4 -17z"/>
<path d="M1050 9786 c7 -7 13 -7 20 0 6 6 3 10 -10 10 -13 0 -16 -4 -10 -10z"/>
<path d="M944 9743 c3 -4 1 -12 -5 -19 -16 -20 4 -23 24 -4 17 17 17 18 -4 23
-11 3 -18 3 -15 0z"/>
<path d="M966 9572 c-3 -5 1 -9 9 -9 8 0 12 4 9 9 -3 4 -7 8 -9 8 -2 0 -6 -4
-9 -8z"/>
<path d="M911 9513 c2 -24 2 -25 6 -5 3 13 9 19 15 16 7 -4 8 -2 4 4 -13 21
-26 13 -25 -15z"/>
<path d="M870 9480 c-13 -8 -12 -10 3 -10 9 0 17 5 17 10 0 12 -1 12 -20 0z"/>
<path d="M870 9456 c0 -2 7 -9 15 -16 13 -11 14 -10 9 4 -5 14 -24 23 -24 12z"/>
<path d="M887 9390 c-3 -11 -3 -20 -1 -20 2 0 8 9 14 20 6 11 7 20 2 20 -6 0
-12 -9 -15 -20z"/>
<path d="M823 9382 c1 -14 5 -18 11 -12 7 7 6 14 -1 21 -9 9 -12 7 -10 -9z"/>
<path d="M696 9152 c-3 -6 1 -13 10 -16 24 -9 34 -7 34 6 0 6 -3 8 -7 5 -3 -4
-12 -2 -19 4 -7 6 -14 6 -18 1z"/>
<path d="M755 9130 c3 -5 8 -10 11 -10 2 0 4 5 4 10 0 6 -5 10 -11 10 -5 0 -7
-4 -4 -10z"/>
<path d="M792 9104 c-7 -8 -8 -14 -3 -14 10 0 25 19 20 25 -2 1 -10 -3 -17
-11z"/>
<path d="M820 9066 c7 -7 13 -7 20 0 6 6 3 10 -10 10 -13 0 -16 -4 -10 -10z"/>
<path d="M796 9057 c3 -10 9 -15 12 -12 3 3 0 11 -7 18 -10 9 -11 8 -5 -6z"/>
<path d="M735 9040 c-3 -5 -1 -10 4 -10 6 0 11 5 11 10 0 6 -2 10 -4 10 -3 0
-8 -4 -11 -10z"/>
<path d="M690 9031 c0 -6 4 -13 10 -16 6 -3 7 1 4 9 -7 18 -14 21 -14 7z"/>
<path d="M652 9008 c2 -5 8 -9 13 -9 5 0 11 4 13 9 1 5 -4 9 -13 9 -9 0 -14
-4 -13 -9z"/>
<path d="M630 8991 c0 -5 5 -13 10 -16 6 -4 8 -11 5 -16 -4 -5 0 -9 7 -9 9 0
10 -3 2 -8 -7 -4 -8 -15 -3 -27 8 -20 8 -20 8 1 1 11 7 26 14 33 10 11 10 13
0 7 -7 -4 -13 -2 -13 4 0 6 -7 18 -15 26 -8 9 -15 11 -15 5z"/>
<path d="M705 8980 c-3 -5 -1 -10 4 -10 6 0 11 5 11 10 0 6 -2 10 -4 10 -3 0
-8 -4 -11 -10z"/>
<path d="M718 8933 c7 -3 16 -2 19 1 4 3 -2 6 -13 5 -11 0 -14 -3 -6 -6z"/>
<path d="M592 8886 c10 -7 14 -17 10 -22 -4 -4 1 -2 11 6 18 14 18 14 0 21
-29 12 -39 9 -21 -5z"/>
<path d="M640 8886 c0 -2 7 -7 16 -10 8 -3 12 -2 9 4 -6 10 -25 14 -25 6z"/>
<path d="M582 8850 c0 -14 2 -19 5 -12 2 6 2 18 0 25 -3 6 -5 1 -5 -13z"/>
<path d="M603 8835 c4 -8 2 -17 -4 -20 -5 -4 -7 -11 -3 -16 3 -5 10 -7 15 -4
11 7 8 55 -4 55 -5 0 -7 -7 -4 -15z"/>
<path d="M670 8840 c-9 -6 -10 -10 -3 -10 6 0 15 5 18 10 8 12 4 12 -15 0z"/>
<path d="M587 8767 c-3 -8 1 -14 8 -14 7 0 11 6 8 14 -3 7 -6 13 -8 13 -2 0
-5 -6 -8 -13z"/>
<path d="M638 8753 c7 -3 16 -2 19 1 4 3 -2 6 -13 5 -11 0 -14 -3 -6 -6z"/>
<path d="M612 8720 c0 -14 2 -19 5 -12 2 6 2 18 0 25 -3 6 -5 1 -5 -13z"/>
<path d="M596 8653 c-6 -14 -5 -15 5 -6 7 7 10 15 7 18 -3 3 -9 -2 -12 -12z"/>
<path d="M511 8646 c-6 -7 -8 -21 -5 -30 6 -16 8 -16 25 0 11 9 19 22 19 28 0
6 -5 3 -11 -6 -14 -25 -32 -23 -19 2 12 23 8 26 -9 6z"/>
<path d="M545 8609 c-5 -8 -5 -11 0 -7 4 4 13 0 20 -9 10 -13 13 -14 20 -2 5
8 5 11 0 7 -4 -4 -13 0 -20 9 -10 13 -13 14 -20 2z"/>
<path d="M520 8566 c0 -8 -6 -16 -12 -19 -10 -4 -10 -7 -1 -18 9 -9 10 -16 1
-26 -8 -11 -7 -12 6 -7 11 4 16 18 16 45 0 21 -2 39 -5 39 -3 0 -5 -6 -5 -14z"/>
<path d="M533 8493 c-7 -2 -13 -11 -13 -18 0 -8 6 -17 13 -21 6 -4 9 -4 5 1
-4 4 -3 16 3 26 5 11 8 19 7 18 -2 0 -9 -3 -15 -6z"/>
<path d="M501 8454 c0 -11 3 -14 6 -6 3 7 2 16 -1 19 -3 4 -6 -2 -5 -13z"/>
<path d="M2415 8050 c-196 -17 -242 -31 -152 -45 47 -7 108 -25 120 -36 5 -4
23 -5 41 -2 21 3 37 -1 45 -10 9 -12 5 -17 -27 -30 -22 -9 -47 -23 -56 -32
-12 -12 -16 -13 -16 -3 -1 8 -6 6 -15 -6 -8 -11 -15 -15 -15 -9 0 6 -8 10 -17
8 -11 -1 -17 -9 -15 -21 2 -14 1 -16 -6 -5 -8 10 -14 11 -32 1 -14 -7 -20 -8
-16 -1 4 6 -8 5 -32 -3 -21 -8 -53 -12 -70 -10 -18 2 -32 0 -32 -5 0 -5 -6
-11 -14 -14 -8 -3 -13 1 -12 11 0 9 -6 17 -14 17 -8 0 -14 -6 -12 -13 1 -6 -2
-11 -7 -10 -5 2 -22 -11 -38 -29 -16 -17 -41 -34 -57 -37 -15 -3 -34 -10 -42
-17 -8 -6 -14 -8 -14 -3 0 4 -5 3 -12 -4 -7 -7 -22 -12 -35 -12 -13 0 -23 -5
-23 -11 0 -6 -6 -9 -13 -6 -7 3 -34 -5 -60 -17 -25 -13 -43 -18 -40 -12 4 6 0
5 -9 -2 -13 -10 -19 -6 -40 25 -14 21 -47 61 -75 88 -27 28 -56 61 -64 74 -18
28 -7 27 -603 81 -187 17 -348 36 -358 41 -26 14 -66 -16 -79 -60 -9 -31 -8
-50 9 -109 10 -40 16 -72 13 -72 -3 0 -22 4 -41 10 -32 8 -388 40 -453 40 -26
0 -27 -2 -27 -59 0 -70 -2 -69 130 -82 52 -5 136 -13 185 -19 50 -5 117 -10
150 -10 83 0 105 -14 121 -75 11 -44 36 -97 167 -350 14 -27 37 -79 51 -115
15 -36 44 -92 66 -125 36 -55 38 -60 20 -63 -11 -2 -55 6 -97 18 -72 20 -172
42 -488 106 -111 23 -295 47 -302 40 -2 -1 -2 -1010 -1 -2242 l3 -2239 30 33
c16 17 35 32 41 32 7 0 14 7 18 15 3 8 10 15 16 15 6 0 23 12 38 26 40 38 132
98 156 101 49 8 323 108 338 124 10 9 52 25 95 34 43 9 101 23 128 31 28 8
114 27 193 44 79 17 230 51 335 76 192 45 266 61 322 70 157 25 568 123 925
219 107 29 236 62 285 74 91 23 280 81 640 196 110 35 245 78 300 96 339 108
711 259 673 274 -9 4 -31 -1 -49 -11 -18 -9 -46 -20 -63 -25 l-30 -9 39 40
c39 40 71 50 92 29 8 -8 19 -7 39 3 16 8 58 23 94 33 106 29 290 88 750 240
239 79 464 151 500 160 92 23 558 174 750 243 136 49 354 108 870 235 146 36
259 66 253 66 -22 1 -15 16 52 117 36 54 65 102 65 106 0 4 5 8 10 8 6 0 10
-6 10 -13 0 -22 33 -46 86 -63 27 -9 55 -21 62 -27 16 -13 32 2 35 31 0 11 5
18 10 15 4 -3 6 -12 3 -20 -5 -13 -1 -14 24 -10 16 4 30 3 30 -2 0 -4 14 -6
30 -3 25 4 29 1 24 -13 -6 -14 -2 -16 31 -11 21 4 43 10 49 15 6 5 31 13 56
18 25 5 44 15 43 21 -2 7 6 12 18 12 11 0 28 4 37 9 9 5 31 11 48 14 17 3 40
10 51 16 11 5 24 7 28 3 5 -4 5 -2 2 4 -8 13 23 24 70 24 41 0 45 14 17 77
-12 28 -18 53 -13 55 5 2 3 12 -6 23 -12 16 -14 17 -9 3 5 -14 1 -18 -15 -18
-12 0 -21 5 -21 10 0 6 4 10 8 10 4 0 9 39 10 88 2 48 7 123 11 167 5 44 8
125 6 180 -3 65 -1 95 5 85 15 -24 12 1 -11 76 -73 243 -93 286 -176 378 -21
23 -45 53 -53 65 -8 13 -29 30 -47 37 -42 18 -53 17 -29 -1 20 -15 20 -15 0
-16 -10 -1 -29 -3 -42 -4 -19 -2 -20 0 -10 13 11 13 8 14 -27 8 -22 -4 -44
-14 -48 -22 -4 -8 -14 -14 -21 -14 -22 0 -108 -51 -143 -83 -18 -17 -33 -26
-33 -19 0 7 -4 12 -10 12 -5 0 -10 -10 -10 -23 0 -33 -27 -67 -47 -60 -13 5
-15 0 -11 -28 4 -23 -5 -66 -27 -132 -31 -93 -54 -143 -40 -86 6 23 2 26 -31
35 -21 5 -39 14 -41 21 -4 11 5 15 74 29 25 5 40 43 28 71 -4 10 -8 27 -9 38
-1 17 -9 20 -55 23 -71 4 -103 -4 -99 -25 2 -12 -6 -17 -29 -20 -17 -2 -34 1
-38 7 -3 5 0 10 8 10 9 0 12 9 9 29 -3 26 -1 29 28 33 18 3 55 1 82 -4 57 -11
103 -7 104 7 0 6 4 23 9 38 10 37 0 45 -26 21 -25 -23 -78 -27 -127 -10 -20 7
-43 11 -51 8 -16 -5 -60 46 -61 70 0 10 9 20 23 22 12 3 31 7 42 9 11 3 -4 5
-32 6 -57 1 -66 11 -31 35 14 10 36 14 67 10 25 -2 39 -1 31 2 -8 4 -17 10
-20 14 -3 5 -52 14 -109 22 l-104 13 -14 40 c-8 22 -25 54 -39 70 l-25 30 4
-40 c3 -22 11 -70 18 -106 9 -48 10 -79 2 -120 l-10 -54 -2 79 c-1 92 -18 94
-23 4 l-3 -58 -170 -5 c-93 -3 -217 -8 -275 -11 -158 -9 -228 -10 -234 -3 -16
15 22 72 82 125 102 90 122 111 122 128 0 9 6 16 13 16 8 0 22 9 32 20 16 18
16 20 2 26 -23 9 -2 47 21 40 23 -8 75 47 60 62 -7 7 -4 14 12 22 16 8 19 15
11 24 -8 9 -4 19 13 35 20 19 26 20 50 10 19 -9 26 -18 23 -31 -4 -14 1 -18
21 -18 21 0 24 2 12 10 -11 7 -7 10 20 11 19 1 41 2 48 2 11 -1 16 11 13 31
-1 5 5 16 13 25 10 11 12 21 6 31 -5 8 -10 31 -10 51 0 41 -12 58 -62 88 -54
32 -127 37 -157 11 -19 -17 -21 -23 -11 -35 11 -13 9 -20 -10 -40 -29 -31 -46
-31 -74 -2 -12 12 -73 69 -136 127 -62 58 -123 115 -134 126 -12 12 -50 45
-86 74 -286 231 -382 298 -544 376 -152 73 -279 97 -595 111 -200 10 -553 10
-601 1 -103 -19 -130 -20 -145 -8 -21 18 -98 6 -160 -25 -39 -19 -60 -39 -92
-89 -24 -35 -43 -68 -43 -74 0 -5 -9 -17 -20 -27 -11 -10 -20 -22 -20 -27 0
-5 -18 -36 -40 -68 -23 -33 -50 -79 -61 -102 -11 -24 -40 -77 -64 -118 -25
-41 -45 -82 -45 -90 0 -14 -25 -83 -56 -157 -8 -17 -14 -44 -14 -61 0 -37 26
-102 41 -102 8 0 7 5 -1 15 -11 13 -9 13 21 1 19 -8 33 -19 32 -23 -1 -5 8
-10 20 -10 17 -2 19 0 7 7 -11 7 -7 10 15 9 17 0 24 -3 18 -6 -22 -8 -14 -18
15 -19 15 0 81 -4 147 -8 66 -4 320 -8 565 -9 245 -1 425 -3 400 -5 -25 -2
-101 -7 -170 -11 -75 -5 192 -8 665 -7 695 1 790 3 790 16 0 8 4 21 8 28 11
17 -2 35 -20 28 -11 -4 -13 -1 -8 15 6 18 4 19 -12 12 -10 -5 -56 -9 -103 -7
-55 1 -94 -3 -111 -12 -16 -8 -41 -11 -62 -7 l-36 6 44 42 c33 31 42 44 33 53
-8 8 -5 14 15 21 15 6 35 8 44 5 13 -4 14 -3 5 3 -10 8 -10 12 3 23 9 7 14 19
11 27 -3 7 1 13 9 13 8 0 15 -7 15 -16 0 -10 7 -14 23 -12 39 5 20 21 -54 45
-172 54 -410 82 -524 63 -33 -6 -98 -13 -145 -16 l-85 -6 -25 53 c-35 76 -81
98 -199 98 -98 0 -139 -12 -146 -43 -2 -11 -7 -65 -10 -119 -4 -73 -2 -97 6
-91 7 4 10 2 8 -5 -3 -7 -9 -12 -14 -12 -9 0 -18 23 -50 131 -8 27 -14 36 -14
23 -1 -13 -7 -23 -15 -23 -9 0 -13 -7 -12 -17 2 -10 7 -52 11 -93 4 -41 12
-86 17 -100 8 -22 8 -23 -6 -10 -9 9 -29 89 -51 210 -39 212 -74 354 -105 421
-25 56 -26 39 -1 -32 23 -69 64 -240 58 -246 -3 -2 -8 11 -12 29 -16 72 -77
242 -90 252 -27 20 -86 128 -80 147 5 16 18 17 143 13 159 -6 163 -8 183 -102
8 -38 22 -68 43 -89 28 -31 66 -44 66 -23 0 5 -9 9 -21 7 -13 -1 -29 8 -41 24
-17 23 -19 35 -13 93 6 54 11 66 25 66 20 0 35 -35 46 -107 6 -40 14 -48 39
-43 5 1 1 -8 -9 -19 -23 -25 -15 -26 30 -5 19 9 31 20 28 25 -3 5 0 9 6 9 6 0
8 5 5 10 -7 11 17 40 33 40 12 0 23 25 28 64 2 16 6 31 9 34 8 8 198 -20 293
-44 105 -26 202 -80 367 -203 130 -97 332 -267 415 -347 51 -49 73 -63 100
-66 28 -2 36 -8 38 -26 4 -27 -23 -62 -49 -62 -15 0 -16 -3 -6 -25 7 -13 21
-26 31 -27 11 -2 21 -9 24 -16 3 -10 -7 -13 -39 -10 -39 3 -45 0 -57 -26 -18
-37 -3 -49 52 -42 26 3 44 0 54 -10 12 -12 17 -12 30 -2 12 9 10 2 -6 -24 -25
-44 -22 -46 20 -16 l30 21 -11 -22 c-7 -12 -19 -25 -27 -28 -10 -4 -14 -13
-10 -28 7 -26 -49 -84 -76 -80 -10 2 -26 -7 -36 -19 -9 -13 -24 -25 -32 -29
-10 -3 -7 -6 8 -6 12 -1 22 -5 22 -11 0 -5 -7 -7 -15 -4 -17 7 -48 -40 -71
-109 -9 -26 -21 -47 -27 -46 -23 2 -57 -13 -50 -24 4 -6 1 -7 -8 -1 -16 10
-99 12 -93 3 2 -4 -4 -10 -14 -14 -26 -11 -92 -13 -98 -4 -3 5 -14 5 -24 -1
-24 -13 -33 -13 -25 0 9 14 -5 12 -35 -5 -31 -18 -43 -19 -35 -2 4 6 0 4 -8
-5 -13 -16 -15 -16 -30 0 -11 10 -17 12 -17 4 0 -8 -7 -9 -25 -2 -24 9 -29 6
-26 -14 1 -5 -4 -4 -11 2 -15 12 -43 11 -55 -3 -5 -4 -1 -5 7 0 8 5 12 5 8 1
-3 -4 -42 -10 -86 -12 -44 -2 -91 -8 -105 -13 -13 -5 -31 -9 -38 -7 -33 6 -58
18 -63 31 -3 9 0 12 10 8 20 -7 18 14 -3 27 -17 11 -17 11 1 6 13 -5 17 -2 12
9 -5 14 5 19 58 27 23 4 29 18 17 37 -12 19 -116 28 -180 15 -41 -8 -56 -16
-62 -32 -10 -25 -13 -24 70 -22 46 1 61 -2 56 -10 -5 -7 -19 -10 -37 -6 -19 4
-35 1 -44 -8 -18 -19 -18 -26 1 -26 8 0 15 -7 15 -16 0 -13 -3 -14 -13 -5 -10
8 -17 7 -25 -1 -8 -8 -15 -8 -25 0 -7 6 -30 9 -50 7 -23 -3 -37 -1 -37 6 0 8
-4 8 -14 0 -11 -9 -19 11 -47 106 -42 144 -49 126 -14 -38 19 -89 23 -125 15
-133 -7 -7 -11 -7 -10 -1 7 34 -28 46 -42 15 -5 -12 -7 -11 -7 4 -1 15 -4 16
-16 6 -8 -7 -15 -8 -15 -3 0 10 -55 11 -66 1 -4 -4 -15 -3 -25 3 -11 5 -19 6
-19 2 0 -4 -7 1 -15 11 -9 11 -15 14 -15 7 0 -8 -7 -10 -21 -6 -14 5 -19 3
-15 -4 5 -7 -2 -7 -24 0 -16 6 -30 15 -30 20 0 5 -5 9 -11 9 -5 0 -7 -4 -4
-10 3 -5 -1 -10 -10 -10 -9 0 -14 4 -11 9 9 14 -28 7 -40 -8 -9 -11 -12 -11
-18 5 -6 16 -9 16 -17 4 -8 -11 -12 -12 -16 -3 -3 8 -14 11 -30 7 -21 -6 -24
-4 -18 7 8 12 6 12 -9 0 -17 -14 -78 -22 -70 -9 2 4 0 9 -6 13 -5 3 -10 1 -10
-6 0 -8 -5 -7 -17 2 -14 12 -16 12 -8 0 6 -10 4 -12 -5 -6 -7 4 -37 8 -66 7
-30 0 -54 4 -54 9 0 5 -5 9 -10 9 -6 0 -9 -6 -8 -12 2 -7 -8 -14 -22 -15 -14
-1 -19 0 -12 3 28 13 8 20 -58 20 -38 -1 -70 -5 -70 -10 0 -4 -7 -3 -15 4 -12
10 -21 10 -40 2 -16 -7 -25 -8 -25 -2 0 13 -59 9 -67 -4 -4 -5 5 -6 21 -2 14
3 26 2 26 -3 0 -5 16 -12 35 -15 19 -4 35 -11 35 -16 0 -6 5 -10 11 -10 5 0 7
5 4 10 -3 6 -1 10 4 10 6 0 11 -5 11 -11 0 -6 7 -9 15 -6 8 4 17 3 19 -2 3 -4
19 -7 36 -6 16 1 30 -3 30 -9 0 -6 7 -3 15 7 13 18 14 18 17 -4 3 -20 15 -26
88 -45 47 -11 112 -31 145 -43 33 -12 89 -31 125 -42 36 -12 70 -27 76 -35 6
-8 17 -14 25 -14 8 -1 25 -7 38 -14 l24 -13 -29 -8 c-58 -14 -74 -15 -74 -4 0
19 -150 6 -182 -15 -14 -9 -54 -21 -87 -26 -39 -5 -95 -26 -162 -59 -57 -28
-106 -51 -111 -51 -4 0 -35 18 -69 40 -125 81 -241 104 -458 94 -117 -6 -151
-12 -241 -42 -69 -22 -128 -35 -171 -36 -36 -2 -71 -6 -77 -10 -7 -4 -12 -2
-12 4 0 6 -4 9 -9 6 -18 -12 -278 -7 -401 7 -14 2 -35 0 -47 -4 -20 -7 -21 -6
-13 22 5 16 8 33 8 36 0 4 15 17 34 28 19 11 61 36 94 55 89 54 150 76 332
120 146 36 180 44 227 56 42 10 156 25 214 27 38 1 67 6 64 11 -5 8 -93 3
-193 -10 -19 -2 -63 -8 -97 -12 -34 -5 -60 -5 -57 0 3 4 -5 8 -18 8 -16 0 -19
-3 -10 -9 9 -5 -2 -12 -35 -21 -26 -6 -70 -19 -98 -28 -27 -8 -52 -15 -55 -15
-3 0 -25 -5 -50 -13 -25 -7 -72 -15 -105 -19 -33 -3 -71 -8 -83 -11 -16 -3
-21 -1 -17 7 8 13 -33 -12 -85 -52 -19 -14 -46 -32 -60 -39 -25 -13 -25 -13 2
15 32 32 28 46 -10 44 l-27 -1 30 -8 c17 -4 23 -8 14 -9 -9 0 -19 -7 -22 -14
-9 -25 -89 -36 -287 -42 -107 -4 -209 -9 -227 -11 -18 -3 -34 0 -39 7 -5 8 -2
11 7 7 8 -3 23 -2 34 3 13 5 -1 8 -42 8 -34 1 -65 -3 -68 -9 -3 -5 -16 -10
-28 -10 -20 0 -20 1 5 14 32 17 131 33 254 42 150 10 109 16 -62 9 -116 -6
-163 -4 -168 4 -4 6 -16 11 -27 11 -23 0 -27 38 -4 46 31 12 13 24 -34 24 -56
0 -67 10 -50 41 9 17 8 20 -3 17 -9 -3 -14 -26 -16 -69 -2 -35 -8 -68 -13 -74
-7 -7 -10 -7 -8 0 6 20 -12 55 -24 48 -7 -4 -6 1 2 10 12 15 12 17 -4 11 -13
-6 -16 -4 -10 5 5 10 2 11 -14 6 -12 -4 -21 -2 -21 4 0 6 -5 11 -11 11 -5 0
-7 -6 -3 -12 6 -10 4 -10 -8 0 -9 7 -24 9 -34 5 -16 -6 -17 -5 -6 9 8 10 9 19
3 22 -5 4 -12 2 -16 -3 -9 -15 -72 -7 -93 12 -17 16 -20 16 -32 2 -10 -12 -16
-13 -26 -4 -11 9 -14 8 -14 0 0 -7 -5 -9 -12 -4 -7 4 -24 9 -38 10 -66 7 -105
12 -105 13 0 5 -246 25 -302 24 -18 0 -33 3 -33 8 0 5 -4 6 -10 3 -5 -3 -20 0
-32 7 -13 6 -29 13 -37 14 -19 3 -61 45 -61 61 0 13 31 18 98 14 17 -1 32 2
32 8 0 5 7 12 16 15 13 5 14 4 5 -7 -9 -11 -5 -14 22 -14 17 0 24 2 15 4 -35
9 -17 22 35 26 42 3 37 4 -25 5 -55 1 -78 -2 -78 -10 0 -9 -3 -9 -12 0 -7 7
-42 12 -86 12 -69 0 -76 2 -102 30 -32 34 -49 118 -27 135 7 6 16 18 20 28 3
9 15 17 25 17 10 0 22 3 26 7 4 4 34 13 67 20 33 6 111 34 172 61 124 55 190
79 226 84 29 4 41 28 14 28 -11 0 -25 15 -36 39 -15 32 -27 43 -68 57 -46 17
-66 34 -119 101 -8 10 -38 38 -67 62 -50 42 -92 91 -76 91 5 -1 17 -15 28 -32
21 -33 81 -56 88 -35 2 6 6 4 10 -5 4 -13 1 -16 -14 -13 -10 2 -19 0 -19 -6 0
-5 46 -8 108 -8 59 1 95 4 80 6 -35 5 -37 23 -3 23 14 0 25 5 25 11 0 8 5 7
15 -1 9 -7 18 -10 22 -6 3 3 1 6 -5 6 -7 0 -12 4 -12 9 0 6 12 9 28 8 20 -2
27 3 27 16 0 12 14 25 38 36 l38 17 -25 12 c-22 10 -24 9 -19 -6 5 -14 3 -15
-8 -4 -7 7 -42 13 -79 13 l-65 2 84 9 c53 6 94 16 111 28 l25 18 74 -57 c41
-31 75 -64 77 -74 1 -9 -2 -15 -7 -11 -5 3 -7 9 -4 14 8 12 -10 21 -28 14 -21
-8 -30 -34 -17 -49 8 -9 -1 -13 -37 -17 -27 -3 -65 -5 -85 -4 -20 1 -34 -2
-32 -6 3 -4 103 -8 222 -8 123 0 224 -5 232 -10 11 -7 6 -10 -20 -10 -26 0
-31 -3 -20 -10 8 -5 27 -10 42 -10 15 0 30 -4 33 -10 6 -10 -21 -14 -59 -10
-11 1 -15 -3 -12 -9 4 -7 44 -11 98 -11 171 0 67 -14 -152 -20 -57 -2 -68 -4
-45 -10 17 -4 24 -8 18 -9 -28 -2 -11 -17 22 -19 29 -2 34 0 28 14 -6 16 7 17
171 11 98 -4 185 -12 195 -18 11 -7 -34 -9 -159 -6 -111 3 -157 2 -125 -4 28
-4 122 -10 210 -12 88 -3 148 -2 133 0 -16 2 -28 8 -28 13 0 5 6 7 13 5 6 -3
93 -10 192 -16 99 -5 220 -13 268 -16 l88 -6 36 34 c19 19 50 55 67 80 17 26
94 124 171 220 77 95 189 233 248 308 59 74 111 138 115 141 5 3 19 21 32 40
14 19 35 43 48 54 22 17 22 19 6 37 -21 23 -64 26 -64 4 0 -8 -7 -15 -15 -15
-18 0 -20 20 -2 21 29 1 -35 18 -94 23 -35 4 -98 11 -139 17 -207 27 -1011 75
-1120 67 -8 0 -51 -4 -95 -8z m225 -64 c0 -21 19 -30 35 -16 10 8 15 8 20 0 4
-6 5 -13 4 -15 -4 -3 -99 -8 -126 -6 -22 2 -14 20 15 35 35 19 52 20 52 2z
m312 -48 c-7 -7 -12 -8 -12 -2 0 14 12 26 19 19 2 -3 -1 -11 -7 -17z m823 12
c54 0 63 -3 61 -17 0 -11 6 -17 16 -17 10 1 15 -2 12 -7 -6 -11 -64 -12 -63
-1 1 4 1 14 0 22 -1 13 -3 13 -14 -1 -20 -26 -43 -28 -76 -8 -32 19 -44 46
-15 35 9 -3 44 -6 79 -6z m-495 -69 c-25 -36 -36 -41 -19 -8 16 31 31 48 37
43 2 -3 -6 -19 -18 -35z m-394 -29 c-8 -16 -22 -35 -32 -43 -10 -8 -5 4 11 29
32 48 42 55 21 14z m591 -10 c36 -11 13 -32 -58 -52 -96 -27 -109 -32 -109
-40 0 -5 9 -6 20 -3 11 3 20 0 20 -6 0 -6 5 -11 11 -11 11 0 111 38 184 70 39
17 145 50 161 50 16 0 -92 -63 -163 -95 -49 -23 -74 -30 -81 -23 -8 8 -20 7
-41 -2 -38 -15 -39 -23 -6 -40 39 -21 32 -41 -11 -35 -20 2 -41 8 -48 14 -6 5
-27 12 -46 15 -34 6 -33 6 13 -19 33 -18 47 -31 45 -43 -3 -18 -58 -31 -58
-13 0 11 -74 34 -142 46 -21 3 -38 12 -38 18 0 7 16 29 36 48 20 18 43 49 52
68 22 45 44 54 33 13 l-9 -29 35 10 c19 6 38 18 43 27 5 10 22 17 39 18 17 0
38 5 48 11 20 12 37 12 70 3z m1478 -42 c31 -12 49 -51 69 -151 24 -123 25
-130 11 -119 -8 7 -18 4 -32 -9 -13 -12 -31 -18 -48 -16 -36 3 -95 -13 -117
-33 -11 -9 -18 -11 -18 -4 0 7 5 12 11 12 6 0 4 7 -5 15 -8 8 -21 15 -28 15
-8 0 -9 -3 -3 -8 12 -8 13 -28 3 -36 -5 -3 -6 -3 -4 0 3 3 0 12 -7 18 -9 10
-15 9 -31 -5 -15 -14 -23 -16 -33 -8 -9 9 -13 8 -13 0 0 -7 -4 -10 -8 -7 -5 3
-20 -1 -34 -8 -16 -9 -31 -10 -42 -4 -10 6 -16 5 -16 -1 0 -5 -9 -8 -20 -6
-11 2 -20 -2 -20 -8 0 -9 -2 -9 -8 0 -4 7 -24 13 -45 15 -20 1 -37 6 -37 10 0
4 -6 5 -14 2 -8 -3 -17 0 -21 5 -3 6 -11 9 -16 6 -15 -10 -11 3 37 102 25 52
63 114 85 138 44 47 65 55 224 79 112 18 147 19 180 6z m-2062 -190 l5 -70
-26 7 c-30 7 -55 29 -58 50 -4 25 -14 28 -14 4 0 -16 -5 -21 -14 -18 -7 3 -18
1 -24 -5 -15 -15 -35 1 -29 23 3 10 1 22 -4 25 -5 3 -4 14 2 26 9 17 13 18 20
7 8 -12 9 -11 8 1 -3 22 16 62 46 98 l27 32 28 -55 c20 -40 30 -76 33 -125z
m-483 101 c0 -5 -20 -21 -45 -36 -25 -14 -43 -30 -40 -35 3 -5 -1 -15 -10 -22
-28 -24 -115 -136 -115 -148 0 -8 -10 -11 -29 -7 -16 3 -45 2 -65 -4 -27 -8
-47 -6 -83 6 -26 9 -58 13 -71 10 -45 -11 -89 14 -162 92 -38 41 -70 79 -70
84 0 5 15 8 33 7 65 -4 228 16 310 37 28 7 56 11 61 8 13 -9 175 -3 199 7 29
12 87 12 87 1z m1090 -1 c0 -5 -4 -10 -10 -10 -5 0 -10 5 -10 10 0 6 5 10 10
10 6 0 10 -4 10 -10z m-2890 -145 c0 -17 -2 -17 -10 -5 -5 8 -10 24 -10 35 0
17 2 17 10 5 5 -8 10 -24 10 -35z m993 -232 c-13 -2 -35 -2 -50 0 -16 2 -5 4
22 4 28 0 40 -2 28 -4z m-158 -13 c-3 -5 -12 -7 -20 -3 -21 7 -19 13 6 13 11
0 18 -4 14 -10z m1264 -23 l30 -25 -30 -12 c-46 -19 -159 6 -159 35 0 13 71
33 107 30 12 -1 35 -14 52 -28z m-1055 -70 c-2 -7 -13 -13 -24 -13 -27 0 -25
14 3 19 12 2 23 5 24 6 1 0 0 -5 -3 -12z m41 -7 c3 -5 -1 -10 -9 -10 -9 0 -16
5 -16 10 0 6 4 10 9 10 6 0 13 -4 16 -10z m4795 -90 c0 -5 -7 -7 -15 -4 -8 4
-15 8 -15 10 0 2 7 4 15 4 8 0 15 -4 15 -10z m-80 -104 c0 -3 -4 -8 -10 -11
-5 -3 -10 -1 -10 4 0 6 5 11 10 11 6 0 10 -2 10 -4z m834 -32 c9 -3 13 -10 10
-15 -8 -14 -21 -11 -28 6 -6 17 -4 18 18 9z m-27 -33 c1 -16 -2 -17 -22 -7
l-24 11 22 7 c12 3 22 6 22 7 1 1 1 -7 2 -18z m-347 -1 c0 -5 -4 -10 -10 -10
-5 0 -10 5 -10 10 0 6 5 10 10 10 6 0 10 -4 10 -10z m90 -194 c0 -2 -8 -10
-17 -17 -16 -13 -17 -12 -4 4 13 16 21 21 21 13z m-30 -66 c0 -12 -99 -106
-109 -103 -3 1 -11 -3 -17 -8 -7 -6 -16 -4 -24 6 -9 10 -9 15 -1 15 6 0 11 -5
11 -10 0 -6 11 -3 24 7 13 10 21 22 18 27 -3 5 0 6 6 2 7 -4 12 -3 12 2 0 6
12 24 27 41 27 31 53 41 53 21z m-149 -63 c-20 -20 -22 -21 -15 -2 8 21 25 37
33 29 3 -2 -5 -15 -18 -27z m1604 -135 c-3 -3 -11 0 -18 7 -9 10 -8 11 6 5 10
-3 15 -9 12 -12z m-761 -53 c-8 -13 -24 -1 -24 18 0 13 3 13 15 3 8 -7 12 -16
9 -21z m706 9 c0 -7 -5 -6 -13 1 -8 6 -18 7 -22 3 -5 -4 -5 -2 -1 5 8 14 36 6
36 -9z m55 -13 c14 -13 25 -33 25 -45 0 -17 -6 -14 -35 19 -19 21 -35 41 -35
45 0 14 22 5 45 -19z m-2597 -64 c11 -7 10 -9 -3 -14 -9 -4 -14 -3 -10 2 3 5
-1 12 -7 14 -7 3 -8 6 -3 6 6 0 16 -3 23 -8z m-744 -13 c-3 -4 -11 -5 -19 -1
-21 7 -19 12 4 10 11 0 18 -5 15 -9z m-2964 -29 c0 -6 -4 -7 -10 -4 -5 3 -10
11 -10 16 0 6 5 7 10 4 6 -3 10 -11 10 -16z m5800 4 c0 -12 -3 -14 -8 -6 -5 7
-40 13 -87 16 l-80 3 88 2 c77 2 87 0 87 -15z m515 -2 c45 -18 135 -146 120
-171 -10 -16 -28 -12 -21 6 3 8 2 12 -4 9 -6 -3 -10 -2 -10 2 0 15 -77 112
-84 106 -3 -4 -6 1 -6 9 0 20 -17 33 -53 42 -23 5 -30 3 -33 -11 -3 -12 -16
-19 -36 -20 -39 -3 -58 -19 -58 -49 0 -24 -34 -51 -44 -35 -8 13 74 102 109
117 33 15 74 13 120 -5z m-6125 -55 c0 -3 -4 -8 -10 -11 -5 -3 -10 -1 -10 4 0
6 5 11 10 11 6 0 10 -2 10 -4z m4397 -68 c-3 -7 -5 -2 -5 12 0 14 2 19 5 13 2
-7 2 -19 0 -25z m1079 -95 c7 -10 13 -27 13 -38 0 -19 0 -19 -13 -2 -12 15
-14 15 -19 3 -6 -16 17 -46 34 -46 5 0 9 9 9 20 0 12 7 20 16 20 10 0 14 -6
11 -14 -7 -16 32 -29 58 -20 13 5 15 2 10 -22 -18 -81 -26 -95 -48 -88 -12 4
-23 11 -25 15 -2 5 -23 9 -47 9 -33 0 -50 6 -66 23 -14 14 -23 18 -26 10 -2
-7 -11 -9 -20 -6 -9 4 -19 -1 -25 -10 -8 -15 -12 -16 -38 -2 -17 9 -30 22 -30
31 0 19 59 74 80 74 9 0 27 11 39 24 13 14 33 27 45 29 11 2 23 5 25 6 2 0 10
-7 17 -16z m-366 -111 c-3 -26 -9 -53 -13 -60 -11 -17 -27 -15 -27 4 0 8 -4
12 -10 9 -6 -3 -7 1 -4 9 4 11 0 16 -10 16 -9 0 -16 4 -16 9 0 11 29 23 40 16
5 -3 11 -1 15 4 3 6 -12 8 -37 6 -103 -9 -265 -26 -288 -30 -14 -3 -120 -16
-237 -29 -116 -14 -220 -29 -230 -34 -10 -5 -55 -13 -101 -17 -84 -7 -124 -25
-56 -25 49 0 39 -9 -17 -15 -143 -16 -151 -15 -145 1 6 15 -2 16 -71 9 -43 -4
-85 -11 -93 -16 -10 -6 -5 -7 18 -5 17 2 32 -1 32 -5 0 -10 -17 -12 -65 -9
-17 0 -44 -4 -60 -10 -17 -7 -38 -13 -49 -16 -29 -6 -49 -26 -35 -35 13 -8
-57 -26 -76 -20 -5 2 -19 5 -30 7 -11 1 -21 3 -23 3 -11 4 34 51 49 51 11 0
19 5 19 11 0 6 -11 8 -27 5 -75 -16 -169 -24 -177 -16 -5 5 5 11 25 14 79 13
465 56 594 66 173 14 275 28 291 41 6 5 29 11 50 14 134 15 478 60 579 75 66
9 136 18 156 19 l35 1 -6 -48z m-2379 -45 c-13 -12 -20 -15 -16 -7 14 26 28
41 33 35 3 -3 -5 -16 -17 -28z m2266 7 c-3 -3 -12 -4 -19 -1 -8 3 -5 6 6 6 11
1 17 -2 13 -5z m-72 -14 c3 -5 1 -10 -4 -10 -6 0 -11 5 -11 10 0 6 2 10 4 10
3 0 8 -4 11 -10z m95 -18 c0 -4 -9 -8 -20 -8 -11 0 -20 4 -20 8 0 4 9 8 20 8
11 0 20 -4 20 -8z m-2380 -26 c0 -3 -4 -8 -10 -11 -5 -3 -10 -1 -10 4 0 6 5
11 10 11 6 0 10 -2 10 -4z m1699 -17 c-8 -15 -14 -18 -22 -10 -7 7 -13 7 -21
-2 -7 -9 -23 -11 -46 -7 l-35 6 43 13 c23 6 47 9 52 6 5 -3 11 -1 15 5 12 20
26 10 14 -11z m71 7 c-7 -7 -13 -7 -20 0 -6 6 -3 10 10 10 13 0 16 -4 10 -10z
m-450 -38 c0 -5 -4 -6 -10 -3 -5 3 -10 2 -10 -4 0 -6 -7 -8 -15 -5 -23 9 -18
22 10 22 14 0 25 -5 25 -10z m-2250 -39 c0 -4 -18 -14 -40 -23 -23 -9 -43 -23
-46 -31 -8 -20 -44 -19 -44 0 0 8 5 15 12 15 6 0 8 3 5 6 -13 14 13 42 40 42
15 0 29 4 31 10 4 12 42 -6 42 -19z m1650 2 c0 -9 -107 -31 -153 -31 -15 0
-27 -4 -27 -9 0 -9 114 -6 162 4 19 3 23 -11 32 -122 6 -68 -1 -104 -15 -81
-6 9 -9 7 -9 -9 0 -12 5 -25 10 -28 6 -3 10 -15 10 -26 0 -10 7 -19 15 -19 13
0 14 14 11 82 -3 45 -2 86 0 90 8 12 64 -20 64 -36 0 -8 6 -16 13 -19 6 -2 -3
-7 -20 -11 -37 -8 -37 -9 -23 -37 8 -14 21 -19 56 -19 41 0 46 -3 56 -31 10
-28 13 -30 47 -25 20 3 81 10 136 16 55 6 143 20 195 30 86 17 358 50 420 50
14 1 68 3 120 6 52 3 93 3 90 1 -8 -8 -452 -75 -645 -97 -99 -12 -205 -26
-235 -31 -30 -6 -80 -14 -110 -18 -30 -5 -73 -13 -95 -19 -94 -26 -338 -70
-353 -64 -13 5 -10 8 12 12 40 7 66 45 68 102 2 66 -17 103 -68 133 l-44 26
-207 -21 c-115 -12 -235 -25 -268 -29 -69 -10 -80 -5 -83 40 -3 36 -38 125
-61 153 -14 17 -11 16 17 -3 18 -12 46 -40 63 -61 l31 -38 32 19 c17 10 47 19
67 19 20 0 49 6 65 14 21 10 43 12 79 6 28 -4 52 -6 55 -5 3 2 27 6 53 9 48 6
159 31 187 43 8 4 65 14 125 24 61 9 113 17 118 18 4 0 7 -3 7 -8z m113 -34
c-4 -7 1 -6 10 2 20 16 30 10 32 -19 1 -17 -5 -20 -36 -20 -29 0 -39 -5 -44
-20 -9 -27 -35 -26 -35 3 0 12 -3 31 -6 43 -5 18 -1 21 26 22 18 0 34 3 37 6
10 10 24 -5 16 -17z m-2732 -56 c11 -14 25 -27 30 -27 5 -1 15 -2 22 -3 7 0
22 -8 33 -16 17 -14 15 -15 -36 -13 -51 3 -55 5 -55 28 0 20 -6 26 -27 28 -27
3 -38 -11 -18 -23 18 -11 10 -24 -17 -27 -20 -2 -33 -13 -48 -40 -21 -40 -41
-47 -90 -28 -40 15 -57 15 -465 -6 -63 -3 -205 -7 -315 -9 -110 -2 -290 -6
-400 -10 -188 -6 -198 -5 -170 10 17 9 37 23 45 31 13 13 13 16 0 25 -13 8
-12 11 4 24 11 8 34 15 50 15 42 1 148 8 361 26 218 18 622 30 688 20 33 -5
55 -15 69 -32 19 -21 30 -24 89 -24 62 0 68 2 71 23 2 18 11 23 48 28 25 3 39
7 33 7 -19 3 -16 20 5 24 35 7 73 -5 93 -31z m69 -82 c73 -16 50 -30 -49 -31
-89 0 -106 6 -77 28 24 17 58 18 126 3z m3737 -15 c-3 -3 -12 -4 -19 -1 -8 3
-5 6 6 6 11 1 17 -2 13 -5z m40 -30 c-3 -3 -12 -4 -19 -1 -8 3 -5 6 6 6 11 1
17 -2 13 -5z m-1687 -66 c0 -9 -20 -13 -63 -14 l-62 -1 50 13 c66 16 75 16 75
2z m-3924 -84 c-3 -8 -10 -14 -16 -14 -14 0 -13 27 2 53 l13 22 3 -23 c2 -13
1 -30 -2 -38z m5364 20 c0 -8 -5 -14 -11 -14 -5 0 -7 5 -4 10 3 6 1 10 -5 10
-6 0 -8 5 -5 10 8 13 25 3 25 -16z m-1376 -9 c-4 -8 -10 -12 -15 -9 -11 6 -2
24 11 24 5 0 7 -7 4 -15z m3366 -12 c0 -5 -4 -13 -8 -18 -9 -12 -95 -55 -111
-55 -16 0 -14 -16 4 -34 21 -21 20 -22 -32 -35 -27 -7 -55 -14 -64 -17 -10 -3
-20 5 -27 21 -12 26 -13 26 -93 21 -45 -3 -87 -10 -93 -15 -6 -4 -22 -7 -36
-6 -14 2 -40 4 -59 4 -19 1 -32 3 -30 5 6 6 209 58 334 85 55 12 123 28 150
35 64 17 65 17 65 9z m-1473 -29 c29 -22 49 -55 23 -39 -5 3 -10 3 -10 -2 0
-19 70 -63 100 -63 41 0 30 -16 -16 -25 -20 -3 -59 -17 -88 -30 -46 -21 -117
-42 -171 -51 -11 -1 -78 -19 -150 -39 -247 -69 -280 -77 -302 -79 -13 0 -23
-5 -23 -9 0 -5 -4 -5 -10 -2 -5 3 -15 3 -22 -1 -7 -4 -23 -9 -37 -10 -13 -2
-27 -7 -30 -12 -3 -5 -26 -12 -51 -15 -49 -6 -310 -71 -350 -87 -14 -5 -42
-12 -64 -15 -21 -2 -47 -7 -57 -10 -25 -8 -24 6 3 58 12 23 27 60 33 81 11 38
14 40 89 62 42 13 96 26 119 29 150 21 360 72 312 76 -16 1 -34 3 -40 4 -5 2
-21 3 -35 4 -54 3 47 33 155 46 22 3 60 9 85 15 25 5 71 15 102 21 33 6 56 16
55 23 -1 6 11 12 27 14 18 2 26 0 21 -7 -7 -13 0 -13 44 -5 22 5 30 11 27 20
-4 10 3 14 24 14 17 0 30 -4 30 -9 0 -8 19 -8 40 -1 21 7 108 3 107 -5 -1 -5
13 -11 32 -13 28 -3 33 -1 27 13 -3 9 -6 24 -6 33 0 12 -3 13 -8 5 -9 -14 -26
-5 -35 20 -9 24 10 21 50 -9z m-3197 -53 c-32 -52 -44 -65 -33 -33 10 26 55
93 60 88 2 -2 -10 -27 -27 -55z m2907 43 c-3 -3 -12 -4 -19 -1 -8 3 -5 6 6 6
11 1 17 -2 13 -5z m941 -7 c-15 -6 -30 -17 -33 -25 -5 -14 9 -13 62 4 15 5 16
4 3 -5 -21 -16 -329 -115 -425 -137 l-80 -18 50 -6 c64 -8 39 -21 -43 -23 -32
-1 -65 -7 -73 -13 -8 -6 -43 -23 -79 -36 -36 -14 -72 -28 -80 -32 -65 -26 262
52 345 82 36 14 408 102 427 102 10 0 9 -3 -2 -10 -11 -8 -7 -9 15 -5 28 6 29
5 12 -8 -10 -8 -44 -20 -75 -26 -135 -25 -396 -83 -502 -112 -79 -22 -141 -33
-200 -34 -47 -1 -94 -3 -105 -4 -20 -2 -20 -3 -1 -10 16 -6 11 -10 -26 -19
-58 -15 -79 -15 -58 -2 12 7 12 10 1 10 -23 0 -135 -31 -148 -41 -6 -6 -28 -9
-50 -8 -21 1 -56 -6 -78 -15 -22 -9 -69 -19 -104 -21 -35 -3 -73 -7 -83 -11
-10 -3 -18 -1 -18 4 0 5 30 18 68 27 37 9 87 23 112 30 25 8 101 28 170 46 69
18 148 38 175 46 28 7 58 12 68 9 10 -2 17 2 17 9 0 7 23 21 51 30 35 12 47
20 38 26 -7 4 -10 11 -7 15 4 3 89 34 190 68 112 38 182 67 181 74 -2 7 4 12
13 12 8 0 12 -4 9 -10 -4 -6 3 -6 21 0 15 6 29 8 32 5 3 -3 -1 -5 -8 -5 -7 0
-11 -3 -8 -6 4 -3 16 0 28 6 24 13 175 48 205 48 16 0 14 -2 -7 -11z m-2468
-35 c0 -9 -92 -28 -185 -38 -33 -4 -63 -11 -66 -17 -4 -5 -10 1 -14 14 -4 13
-13 27 -19 31 -36 23 211 53 257 31 15 -8 27 -17 27 -21z m1477 32 c-3 -3 -12
-4 -19 -1 -8 3 -5 6 6 6 11 1 17 -2 13 -5z m-5583 -19 c-4 -8 -8 -15 -10 -15
-2 0 -4 7 -4 15 0 8 4 15 10 15 5 0 7 -7 4 -15z m5543 9 c-3 -3 -12 -4 -19 -1
-8 3 -5 6 6 6 11 1 17 -2 13 -5z m88 -14 c-3 -5 -12 -10 -18 -10 -7 0 -6 4 3
10 19 12 23 12 15 0z m630 -10 c3 -5 1 -10 -4 -10 -6 0 -11 5 -11 10 0 6 2 10
4 10 3 0 8 -4 11 -10z m-1858 -30 c4 -11 2 -12 -5 -2 -11 17 -41 6 -70 -26
-12 -14 -24 -23 -26 -21 -10 10 8 58 23 63 31 8 74 1 78 -14z m1120 14 c-3 -3
-12 -4 -19 -1 -8 3 -5 6 6 6 11 1 17 -2 13 -5z m1913 2 c0 -3 -4 -8 -10 -11
-5 -3 -10 -1 -10 4 0 6 5 11 10 11 6 0 10 -2 10 -4z m-3365 -25 c-15 -14 -75
-24 -75 -12 0 9 24 17 65 20 11 0 15 -3 10 -8z m342 -53 c-3 -8 -6 -5 -6 6 -1
11 2 17 5 13 3 -3 4 -12 1 -19z m-575 -53 c-12 -22 -27 -2 -18 22 5 12 10 13
17 6 7 -7 8 -17 1 -28z m330 23 c3 -7 -14 -35 -36 -63 -38 -47 -42 -49 -58
-33 -9 9 -13 19 -10 23 16 16 -34 -2 -50 -17 -26 -25 -41 -23 -27 3 13 25 -1
39 -37 39 -35 0 -84 12 -84 20 0 8 48 15 165 26 39 4 72 8 74 10 10 10 59 3
63 -8z m54 -10 c-3 -13 -6 -26 -6 -30 0 -4 -7 -5 -15 -2 -8 4 -15 1 -15 -7 0
-7 -2 -10 -5 -7 -3 2 0 19 6 36 13 37 45 46 35 10z m114 -58 c0 -11 -4 -20
-10 -20 -5 0 -10 9 -10 20 0 11 5 20 10 20 6 0 10 -9 10 -20z m-505 -62 l-7
-60 48 5 c27 3 80 13 118 22 38 8 74 14 80 12 17 -7 -45 -29 -89 -32 -49 -3
-91 -13 -127 -31 -25 -13 -28 -12 -38 6 -13 24 -2 152 12 144 6 -4 7 -31 3
-66z m530 5 c30 -35 30 -35 -2 -50 -32 -15 -44 -8 -18 10 17 13 17 15 0 40
-23 35 -11 35 20 0z m158 -10 c-7 -2 -19 -2 -25 0 -7 3 -2 5 12 5 14 0 19 -2
13 -5z m-1645 -53 c3 -37 -20 -50 -88 -50 l-51 0 37 32 c21 18 45 32 55 30 9
-2 20 2 24 8 11 18 21 11 23 -20z m2799 -6 c-3 -3 -12 -4 -19 -1 -8 3 -5 6 6
6 11 1 17 -2 13 -5z m-1177 -54 c-19 -17 -42 -30 -52 -30 -10 0 -18 -5 -18
-12 0 -6 -3 -9 -6 -6 -6 6 -32 -6 -75 -35 -15 -10 -35 -20 -45 -22 -11 -2 -30
-7 -44 -10 -23 -5 -23 -5 -6 7 10 7 44 31 75 54 54 40 119 69 171 77 14 2 27
5 30 5 3 1 -11 -12 -30 -28z m610 -49 c0 -5 -33 -17 -72 -26 -40 -10 -87 -23
-105 -31 -18 -7 -49 -15 -70 -19 -21 -3 -109 -23 -196 -45 -87 -22 -171 -40
-186 -40 -15 0 -32 -5 -37 -10 -9 -9 -140 -51 -374 -120 -53 -16 -193 -40
-231 -40 -23 0 -4 36 48 90 54 57 88 77 98 60 3 -5 37 9 77 31 40 22 83 42 97
46 24 5 22 2 -14 -30 -31 -29 -40 -44 -41 -72 0 -20 2 -38 6 -40 7 -5 137 29
325 85 72 21 187 50 256 64 70 14 160 38 200 52 41 14 96 29 123 34 27 5 51
12 54 15 9 8 42 6 42 -4z m348 -166 c62 25 122 43 122 35 0 -5 -24 -17 -52
-28 -94 -35 -211 -73 -214 -69 -2 2 19 14 46 28 43 21 50 28 50 54 l1 30 15
-28 c11 -21 20 -27 32 -22z m-6600 29 c23 -7 27 -20 13 -43 -12 -19 -51 3 -51
29 0 22 3 23 38 14z m2450 -161 c-16 -2 -40 -2 -55 0 -16 2 -3 4 27 4 30 0 43
-2 28 -4z m-115 -10 c-7 -2 -21 -2 -30 0 -10 3 -4 5 12 5 17 0 24 -2 18 -5z
m-110 -10 c-7 -2 -21 -2 -30 0 -10 3 -4 5 12 5 17 0 24 -2 18 -5z m-83 -7 c0
-8 -61 -12 -66 -4 -3 4 11 8 30 8 20 0 36 -2 36 -4z m-224 -65 c-9 -14 -206
-55 -206 -42 0 6 160 48 193 50 10 0 16 -3 13 -8z m2634 -41 c0 -5 -5 -10 -11
-10 -5 0 -7 5 -4 10 3 6 8 10 11 10 2 0 4 -4 4 -10z m-210 -180 c0 -17 -118
-98 -173 -118 -74 -28 -170 -46 -215 -39 -40 5 -138 44 -131 52 3 2 25 -1 49
-7 25 -6 86 -11 137 -12 88 -1 94 1 175 42 45 23 97 53 113 67 33 26 45 31 45
15z m80 -43 c0 -2 -12 -14 -27 -28 -24 -22 -24 -13 0 19 8 11 27 17 27 9z"/>
<path d="M4835 7500 c3 -5 8 -10 11 -10 2 0 4 5 4 10 0 6 -5 10 -11 10 -5 0
-7 -4 -4 -10z"/>
<path d="M4740 7490 c-9 -6 -10 -10 -3 -10 6 0 15 5 18 10 8 12 4 12 -15 0z"/>
<path d="M2205 7520 c3 -5 8 -10 11 -10 2 0 4 5 4 10 0 6 -5 10 -11 10 -5 0
-7 -4 -4 -10z"/>
<path d="M6276 5891 c-7 -10 71 -7 81 3 4 3 -12 6 -35 6 -22 0 -43 -4 -46 -9z"/>
<path d="M6028 5863 c6 -2 18 -2 25 0 6 3 1 5 -13 5 -14 0 -19 -2 -12 -5z"/>
<path d="M5948 5853 c7 -3 16 -2 19 1 4 3 -2 6 -13 5 -11 0 -14 -3 -6 -6z"/>
<path d="M5592 5668 c-19 -19 -14 -28 13 -28 18 0 25 5 25 20 0 22 -20 26 -38
8z"/>
<path d="M5528 5547 c-35 -21 -55 -57 -43 -77 4 -6 1 -10 -4 -10 -6 0 -11 -4
-11 -9 0 -21 48 4 75 40 16 22 35 37 42 35 8 -4 13 3 13 19 0 31 -22 32 -72 2z"/>
<path d="M5110 4660 c-12 -8 -12 -10 5 -10 11 0 27 5 35 10 12 8 12 10 -5 10
-11 0 -27 -5 -35 -10z"/>
<path d="M5224 7454 c17 -34 46 -53 46 -29 0 9 -6 12 -15 9 -8 -4 -15 -2 -15
3 0 5 -7 18 -15 29 -15 17 -15 16 -1 -12z"/>
<path d="M1970 7300 c0 -5 5 -10 10 -10 6 0 10 5 10 10 0 6 -4 10 -10 10 -5 0
-10 -4 -10 -10z"/>
<path d="M1997 7286 c-4 -9 -15 -13 -29 -10 -20 4 -20 3 -4 -4 14 -6 16 -11 8
-16 -15 -9 -16 -26 -2 -26 6 0 9 5 8 11 -2 6 3 14 10 16 6 3 12 -2 12 -11 0
-9 4 -16 8 -16 9 0 9 56 0 65 -3 3 -8 -1 -11 -9z"/>
<path d="M5292 7275 c0 -16 2 -22 5 -12 2 9 2 23 0 30 -3 6 -5 -1 -5 -18z"/>
<path d="M1880 7271 c0 -6 4 -13 10 -16 6 -3 7 1 4 9 -7 18 -14 21 -14 7z"/>
<path d="M1920 7261 c0 -6 4 -13 10 -16 6 -3 7 1 4 9 -7 18 -14 21 -14 7z"/>
<path d="M2159 7172 c-1 -4 -1 -10 -1 -13 1 -4 -10 -10 -23 -13 -14 -4 -25
-13 -25 -21 0 -19 85 -20 119 -1 24 13 24 14 3 25 -36 19 -72 31 -73 23z"/>
<path d="M6587 7105 c-4 -8 -1 -18 5 -21 7 -4 14 -2 16 4 2 7 10 12 18 12 9 0
12 5 9 10 -9 15 -42 12 -48 -5z"/>
<path d="M6643 7078 c-24 -12 -28 -24 -14 -47 11 -17 31 -6 31 18 0 10 10 23
23 29 20 10 20 11 2 11 -11 0 -30 -5 -42 -11z"/>
<path d="M6718 7013 c7 -3 16 -2 19 1 4 3 -2 6 -13 5 -11 0 -14 -3 -6 -6z"/>
<path d="M6820 6761 c-7 -13 -7 -22 0 -26 11 -7 11 -8 14 23 3 27 0 28 -14 3z"/>
<path d="M7411 6744 c0 -11 3 -14 6 -6 3 7 2 16 -1 19 -3 4 -6 -2 -5 -13z"/>
<path d="M6785 6710 c-3 -6 1 -7 9 -4 18 7 21 14 7 14 -6 0 -13 -4 -16 -10z"/>
<path d="M1828 6543 c7 -3 16 -2 19 1 4 3 -2 6 -13 5 -11 0 -14 -3 -6 -6z"/>
<path d="M1774 6498 c-3 -4 9 -8 26 -8 17 0 29 4 25 9 -6 11 -44 10 -51 -1z"/>
<path d="M4120 6416 c0 -7 50 -13 55 -7 2 4 -10 8 -26 9 -16 1 -29 1 -29 -2z"/>
<path d="M4228 6403 c7 -3 16 -2 19 1 4 3 -2 6 -13 5 -11 0 -14 -3 -6 -6z"/>
<path d="M5665 6400 c-3 -5 -1 -10 4 -10 6 0 11 5 11 10 0 6 -2 10 -4 10 -3 0
-8 -4 -11 -10z"/>
<path d="M2631 6269 c-13 -11 -18 -19 -10 -19 21 0 42 16 38 28 -2 6 -14 2
-28 -9z"/>
<path d="M2928 6233 c7 -3 16 -2 19 1 4 3 -2 6 -13 5 -11 0 -14 -3 -6 -6z"/>
<path d="M2988 6233 c7 -3 16 -2 19 1 4 3 -2 6 -13 5 -11 0 -14 -3 -6 -6z"/>
<path d="M5468 4009 c-19 -11 -24 -29 -8 -29 5 0 14 9 20 20 12 23 12 23 -12
9z"/>
<path d="M5500 4001 c0 -6 4 -12 8 -15 5 -3 9 1 9 9 0 8 -4 15 -9 15 -4 0 -8
-4 -8 -9z"/>
<path d="M5406 3988 c4 -7 -4 -8 -24 -4 -20 5 -34 2 -45 -8 -9 -9 -30 -18 -49
-21 -18 -2 -44 -7 -58 -10 -14 -2 -34 -7 -45 -9 -44 -9 -50 -12 -60 -24 -8
-10 -17 -11 -38 -3 -30 12 -60 5 -50 -12 4 -7 0 -8 -12 -4 -11 5 -23 0 -35
-13 -17 -20 -19 -20 -29 -3 -8 14 -10 15 -11 3 0 -13 -1 -13 -10 0 -8 13 -10
13 -11 -2 -3 -32 -4 -36 -13 -45 -5 -5 -6 -3 -2 5 11 19 -23 14 -51 -8 -20
-15 -29 -17 -39 -9 -11 9 -14 8 -14 0 0 -7 -5 -9 -12 -5 -8 5 -7 0 2 -11 14
-17 13 -18 -4 -12 -14 6 -17 4 -12 -8 3 -10 2 -14 -5 -9 -6 3 -8 15 -6 26 4
16 3 17 -9 7 -8 -6 -14 -20 -14 -31 0 -15 -3 -17 -19 -8 -29 15 -39 12 -17 -5
19 -15 19 -15 -2 -15 -12 0 -22 -5 -22 -11 0 -5 5 -7 12 -3 7 5 8 3 3 -6 -6
-10 -11 -9 -21 5 -7 10 -10 23 -7 29 4 6 -1 5 -10 -3 -9 -7 -15 -17 -12 -21 3
-5 0 -12 -6 -16 -8 -4 -9 -3 -5 4 4 7 2 12 -4 12 -6 0 -8 5 -5 10 10 17 -7 11
-22 -7 -8 -10 -12 -13 -9 -6 4 7 -1 11 -13 10 -18 -1 -18 -2 -2 -26 9 -14 11
-22 5 -18 -7 4 -14 1 -17 -7 -6 -15 -77 -8 -114 12 -14 8 -24 9 -28 2 -4 -6
-11 -7 -17 -4 -6 4 -8 2 -5 -3 4 -6 0 -13 -8 -17 -17 -6 -30 10 -15 17 6 3 5
4 -2 3 -7 -2 -12 -9 -10 -16 2 -9 -5 -10 -24 -6 -22 6 -25 4 -20 -9 5 -14 1
-15 -24 -10 -19 4 -30 3 -30 -4 0 -6 -5 -11 -11 -11 -5 0 -7 5 -3 11 4 8 0 8
-15 0 -11 -7 -21 -17 -21 -23 0 -9 -3 -9 -12 0 -7 7 -19 12 -28 11 -10 0 -9
-3 5 -9 20 -9 20 -9 0 -9 -12 -1 -26 4 -32 10 -7 7 -15 6 -25 -5 -9 -8 -18
-12 -22 -9 -3 4 -6 1 -6 -5 0 -6 -7 -9 -15 -6 -8 4 -22 1 -30 -6 -8 -7 -21
-10 -30 -7 -8 4 -17 2 -20 -3 -4 -6 -11 -10 -16 -10 -6 0 -7 5 -4 10 11 17 -7
11 -22 -7 -7 -10 -13 -13 -12 -8 3 22 -2 29 -11 15 -8 -12 -10 -12 -10 -1 0 8
-10 2 -25 -15 -13 -15 -27 -25 -31 -21 -4 4 -1 7 7 7 12 0 12 2 0 9 -10 6 -20
3 -32 -12 -10 -12 -18 -16 -19 -9 0 6 5 12 11 12 5 0 7 5 3 11 -4 7 -17 -1
-34 -21 -22 -25 -34 -31 -68 -32 -23 0 -43 -4 -43 -9 -6 -43 -18 -53 -40 -33
-18 16 -19 16 -20 -7 -1 -17 -3 -19 -6 -6 -2 9 -8 17 -13 17 -5 0 -14 -8 -19
-17 -8 -14 -11 -15 -11 -3 0 12 -4 10 -15 -4 -8 -11 -15 -14 -15 -8 0 18 -28
14 -39 -5 -8 -13 -10 -14 -11 -4 0 11 -4 10 -16 -5 -8 -10 -13 -13 -9 -6 4 8
-1 12 -14 12 -12 0 -21 -5 -21 -10 0 -7 -7 -7 -21 1 -15 8 -24 8 -32 0 -8 -8
-5 -11 12 -11 12 0 20 -4 17 -9 -3 -5 -16 -7 -28 -3 -14 3 -19 1 -14 -6 7 -12
-27 -35 -37 -25 -3 3 -14 2 -24 -1 -15 -6 -15 -8 -3 -17 11 -7 8 -8 -12 -5
-15 2 -28 0 -30 -5 -2 -6 -11 -7 -21 -3 -10 3 -16 13 -13 20 5 14 -10 20 -16
7 -8 -20 -68 -52 -84 -46 -14 5 -16 3 -11 -11 6 -14 3 -17 -9 -12 -15 6 -15 4
-1 -17 9 -15 12 -29 6 -39 -7 -12 -4 -14 19 -10 24 5 25 3 14 -11 -12 -14 -10
-20 12 -42 14 -14 26 -31 26 -37 0 -6 3 -9 6 -5 4 3 20 -1 35 -9 18 -9 28 -10
27 -4 -2 7 8 19 22 28 14 9 20 10 13 3 -17 -20 5 -65 24 -50 11 10 12 8 6 -7
-6 -16 -4 -17 9 -7 8 7 17 10 21 7 3 -3 25 -6 49 -7 30 0 42 3 40 12 -1 7 2
10 7 6 6 -3 7 -13 4 -23 -4 -9 7 -2 24 16 21 21 33 28 36 20 4 -10 6 -10 6 0
1 6 6 12 12 12 5 0 7 -4 4 -10 -3 -6 1 -7 9 -4 9 4 16 1 16 -7 0 -6 10 -1 23
12 13 13 22 27 20 32 -4 7 0 8 36 11 11 0 23 5 28 10 5 5 3 6 -4 2 -16 -9 -18
10 -3 19 6 4 17 2 24 -4 9 -8 13 -7 13 4 0 8 -4 12 -9 9 -10 -6 -11 10 -1 19
3 4 12 2 20 -5 11 -9 12 -7 7 7 -6 15 -4 16 15 6 12 -7 19 -16 16 -21 -6 -10
21 -7 31 3 4 4 -1 7 -12 7 -18 1 -18 1 -1 14 17 13 25 32 9 22 -5 -3 -9 2 -9
11 0 13 3 12 17 -4 12 -16 21 -18 34 -11 13 7 21 5 31 -9 14 -17 14 -17 15 5
0 13 4 20 10 17 6 -3 10 0 11 7 1 7 5 2 9 -12 6 -18 8 -20 9 -7 1 10 5 16 10
12 5 -3 12 -1 16 5 3 5 0 10 -7 11 -7 0 -4 4 7 8 11 5 28 4 38 -1 19 -10 23 2
6 19 -8 8 -7 13 3 18 7 5 10 5 6 0 -10 -10 19 -38 32 -30 8 5 8 11 1 19 -13
15 -4 27 13 20 7 -3 21 4 31 16 18 19 18 20 -1 20 -15 0 -16 2 -5 9 10 7 18 5
25 -5 9 -11 19 -12 48 -4 21 6 37 16 35 23 -1 7 4 11 12 9 24 -5 50 8 44 24
-4 10 0 12 11 8 9 -3 13 -11 10 -16 -4 -6 3 -5 15 1 11 7 21 14 21 17 0 3 -4
2 -10 -1 -5 -3 -10 3 -10 15 0 19 1 20 16 6 19 -20 19 -20 35 2 13 16 13 16
-6 2 -19 -14 -19 -14 -3 6 12 13 28 19 48 18 23 -1 30 2 28 13 -2 11 6 16 24
17 23 1 27 -2 22 -17 -4 -13 -2 -17 5 -13 6 4 11 14 11 21 0 8 6 12 14 9 18
-7 88 36 83 50 -3 6 6 12 20 12 21 2 22 0 11 -14 -7 -9 0 -7 16 6 15 12 32 19
36 17 5 -3 12 -1 15 5 4 6 3 10 -2 9 -4 -1 -15 -1 -23 0 -13 1 -13 3 -1 10 9
6 22 6 33 0 14 -8 16 -6 11 8 -5 13 -3 15 11 10 14 -6 17 -3 12 9 -5 13 -3 14
6 7 7 -5 22 -13 33 -17 16 -5 15 -2 -5 14 -20 15 -21 20 -8 20 9 0 20 -5 23
-11 5 -7 14 -4 28 8 11 10 18 14 15 8 -3 -5 1 -17 10 -24 14 -13 15 -12 10 7
-7 26 9 40 42 38 32 -3 62 12 54 26 -4 7 -3 8 4 4 24 -15 52 -15 52 0 0 12 4
12 19 2 17 -10 24 -8 47 15 33 33 38 33 59 5 l16 -23 -7 28 c-6 24 -3 28 25
33 17 4 31 10 31 14 0 5 8 6 19 3 10 -3 22 0 25 6 4 5 13 8 20 5 7 -3 16 2 20
12 5 14 4 15 -9 4 -10 -8 -15 -9 -15 -1 0 6 5 12 10 12 6 1 14 2 19 3 5 0 12
4 16 8 4 4 20 5 35 2 19 -4 29 -1 33 10 5 14 3 15 -13 6 -24 -13 -30 -13 -30
0 0 6 7 10 15 10 9 0 18 7 22 16 5 13 7 13 14 2 6 -8 9 -9 9 -2 0 18 31 26 44
12 6 -7 10 -12 9 -9 -3 6 25 31 36 31 5 0 11 8 13 17 3 15 4 15 20 0 15 -15
17 -15 30 0 9 11 9 14 1 9 -14 -8 -56 11 -49 22 3 5 -4 9 -15 9 -11 1 -17 -3
-13 -9z m1 -24 c-3 -3 -12 -4 -19 -1 -8 3 -5 6 6 6 11 1 17 -2 13 -5z m-232
-124 c-3 -5 -12 -10 -18 -10 -7 0 -6 4 3 10 19 12 23 12 15 0z m-155 -59 c-1
-9 -27 -41 -34 -41 -3 0 -6 7 -6 15 0 8 5 15 11 15 5 0 8 4 5 8 -3 5 1 9 9 9
8 0 15 -3 15 -6z m-87 -36 c-3 -9 -8 -14 -10 -11 -3 3 -2 9 2 15 9 16 15 13 8
-4z m-169 -7 c-3 -4 -9 -8 -15 -8 -5 0 -9 4 -9 8 0 5 7 9 15 9 8 0 12 -4 9 -9z
m-84 -32 c0 -3 -4 -8 -10 -11 -5 -3 -10 -1 -10 4 0 6 5 11 10 11 6 0 10 -2 10
-4z m-220 -26 c6 -11 7 -20 3 -20 -5 0 -14 9 -21 20 -7 11 -8 20 -2 20 5 0 14
-9 20 -20z m55 -16 c-9 -7 -14 -17 -10 -23 3 -6 2 -11 -4 -11 -14 0 -19 23 -7
36 5 6 17 11 24 11 11 0 10 -3 -3 -13z m89 1 c-4 -8 -11 -12 -16 -9 -6 4 -5
10 3 15 19 12 19 11 13 -6z m-167 -2 c-10 -9 -56 -10 -51 -1 3 4 17 8 31 8 15
0 23 -3 20 -7z m-84 -26 c3 -8 -1 -14 -8 -14 -7 0 -11 6 -8 14 3 7 6 13 8 13
2 0 5 -6 8 -13z m50 -64 c-3 -7 -10 -13 -16 -13 -8 0 -8 3 0 11 6 6 9 19 6 28
-4 13 -3 13 5 2 6 -8 8 -20 5 -28z m103 1 c-1 -9 -10 -21 -19 -26 -12 -6 -17
-6 -15 3 2 6 -3 14 -11 17 -8 3 -11 0 -7 -7 4 -6 2 -11 -4 -11 -7 0 -10 6 -7
13 2 6 13 12 24 12 12 0 25 3 29 8 11 10 13 9 10 -9z m-136 -8 c0 -3 -4 -8
-10 -11 -5 -3 -10 -1 -10 4 0 6 5 11 10 11 6 0 10 -2 10 -4z m-380 -128 c0 -6
-6 -5 -15 2 -8 7 -15 14 -15 16 0 2 7 1 15 -2 8 -4 15 -11 15 -16z m150 -23
c0 -8 -4 -15 -10 -15 -5 0 -7 7 -4 15 4 8 8 15 10 15 2 0 4 -7 4 -15z m-890
-190 c0 -8 -2 -15 -4 -15 -2 0 -6 7 -10 15 -3 8 -1 15 4 15 6 0 10 -7 10 -15z
m395 1 c12 -12 12 -15 -1 -20 -8 -3 -12 -2 -9 4 3 6 1 10 -4 10 -6 0 -11 5
-11 10 0 14 9 12 25 -4z m-46 -52 c12 8 15 -6 4 -17 -8 -9 -33 12 -33 27 0 6
4 5 9 -3 5 -7 14 -10 20 -7z"/>
<path d="M5345 3910 c-3 -5 -1 -10 4 -10 6 0 11 5 11 10 0 6 -2 10 -4 10 -3 0
-8 -4 -11 -10z"/>
<path d="M4490 3724 c0 -8 5 -12 10 -9 6 4 8 11 5 16 -9 14 -15 11 -15 -7z"/>
<path d="M4550 3716 c0 -8 4 -17 8 -20 4 -2 8 4 8 15 0 10 -4 19 -8 19 -4 0
-8 -6 -8 -14z"/>
<path d="M4520 3710 c-9 -6 -10 -10 -3 -10 6 0 15 5 18 10 8 12 4 12 -15 0z"/>
<path d="M4811 3690 c-18 -11 0 -19 23 -10 16 5 17 8 4 12 -8 4 -21 3 -27 -2z"/>
<path d="M4760 3640 c-9 -6 -10 -10 -3 -10 6 0 15 5 18 10 8 12 4 12 -15 0z"/>
<path d="M3678 3503 c6 -2 9 -10 6 -15 -4 -7 -2 -8 5 -4 13 9 5 26 -12 25 -9
0 -8 -2 1 -6z"/>
<path d="M3340 3406 c0 -2 7 -6 15 -10 8 -3 15 -1 15 4 0 6 -7 10 -15 10 -8 0
-15 -2 -15 -4z"/>
<path d="M3035 3240 c-11 -5 -18 -9 -15 -10 27 -8 40 -6 40 6 0 8 -1 14 -2 13
-2 0 -12 -4 -23 -9z"/>
<path d="M2709 3201 c-16 -16 -31 -25 -35 -20 -3 5 -10 9 -15 9 -6 0 -7 -4 -4
-10 3 -6 -1 -7 -9 -4 -9 3 -14 10 -11 14 3 5 0 12 -6 16 -8 4 -9 3 -5 -4 5 -8
-1 -12 -14 -12 -14 0 -19 -4 -14 -12 5 -9 2 -8 -9 1 -15 12 -19 12 -31 -4 -10
-14 -15 -15 -21 -5 -6 9 -4 11 5 5 8 -5 11 -4 7 3 -8 12 -47 4 -47 -9 0 -5 -7
-9 -16 -9 -10 0 -14 -5 -10 -16 3 -8 2 -12 -4 -9 -6 3 -10 14 -10 23 0 14 -2
14 -9 3 -5 -7 -13 -11 -19 -7 -6 3 -13 2 -17 -4 -3 -5 -22 -7 -42 -4 -27 4
-39 1 -54 -15 -11 -12 -24 -21 -30 -21 -6 0 -7 -4 -4 -10 4 -7 -3 -7 -20 0
-37 14 -40 13 -22 -8 14 -15 15 -19 2 -19 -8 0 -11 5 -8 10 4 6 -5 7 -22 3
-15 -4 -31 -3 -34 1 -3 5 -17 -2 -31 -15 -16 -15 -18 -21 -7 -16 9 3 17 2 17
-4 0 -6 -8 -9 -17 -7 -10 1 -17 7 -16 13 4 20 -58 4 -82 -22 -28 -30 -40 -34
-31 -8 5 14 4 14 -9 -2 -8 -11 -15 -16 -15 -12 0 5 -12 1 -26 -9 -15 -9 -23
-12 -20 -6 4 6 2 11 -4 11 -6 0 -8 5 -5 10 9 15 -4 30 -21 23 -12 -4 -12 -8
-2 -22 7 -9 9 -13 4 -9 -5 4 -15 1 -23 -7 -15 -15 -38 -15 -62 -1 -8 5 -12 5
-9 0 3 -5 0 -15 -8 -22 -12 -11 -14 -9 -15 10 l0 23 -9 -22 c-11 -26 -14 -27
-43 -11 -20 10 -21 10 -7 -7 14 -16 13 -17 -8 -11 -13 5 -22 3 -22 -3 0 -6 -4
-11 -10 -11 -5 0 -7 8 -4 18 4 9 -3 2 -15 -15 -22 -35 -34 -44 -25 -18 7 17
-4 19 -25 6 -9 -6 -22 -6 -31 -1 -9 5 -22 5 -31 -1 -12 -7 -12 -9 1 -9 8 -1 2
-7 -15 -14 -26 -12 -32 -11 -42 2 -9 11 -13 12 -13 3 0 -7 -5 -9 -12 -5 -8 5
-7 0 2 -11 9 -11 10 -16 3 -11 -8 4 -13 2 -14 -6 0 -7 -5 -2 -10 12 -8 19 -12
22 -19 10 -5 -8 -5 -22 1 -34 9 -18 8 -18 -8 2 -14 17 -21 20 -30 11 -6 -6 -9
-19 -5 -28 5 -12 2 -12 -14 3 -16 16 -19 17 -22 4 -2 -10 -11 -14 -28 -10 -20
4 -23 1 -18 -14 5 -15 4 -16 -4 -5 -6 8 -9 23 -6 34 3 18 2 18 -15 3 -9 -9
-25 -16 -35 -16 -9 0 -14 -4 -11 -10 3 -5 -1 -10 -9 -10 -9 0 -16 5 -16 12 0
6 -3 9 -6 6 -3 -4 0 -16 6 -28 10 -18 10 -21 -2 -14 -22 14 -38 13 -38 -2 0
-8 -6 -11 -15 -8 -8 4 -12 11 -8 17 3 6 1 7 -6 3 -6 -4 -9 -12 -6 -17 4 -5 2
-9 -4 -9 -5 0 -14 7 -19 16 -6 11 -11 13 -16 5 -4 -6 -2 -11 4 -11 6 0 8 -5 5
-11 -4 -6 -9 -8 -12 -5 -3 3 -12 -2 -21 -10 -11 -11 -17 -12 -22 -4 -5 9 -9 9
-14 1 -4 -6 -4 -16 0 -23 5 -7 3 -8 -5 -4 -7 5 -10 14 -7 22 7 17 4 17 -28 3
-14 -7 -23 -16 -20 -20 8 -13 -10 -11 -25 4 -11 10 -13 10 -7 0 10 -17 1 -16
-18 2 -13 13 -15 11 -21 -15 -4 -17 -11 -30 -16 -30 -6 0 -6 8 1 19 15 29 12
34 -11 17 -12 -8 -28 -12 -37 -9 -12 5 -14 2 -9 -13 7 -19 7 -19 -8 0 -8 11
-15 14 -15 8 0 -7 -6 -12 -14 -12 -8 0 -16 -7 -20 -15 -3 -8 -11 -15 -17 -15
-8 0 -7 5 2 18 13 16 12 16 -6 1 -11 -9 -26 -14 -34 -11 -8 3 -11 0 -7 -7 5
-7 -2 -11 -18 -11 -14 0 -28 5 -31 10 -8 13 -25 13 -25 -1 0 -5 4 -8 8 -5 4 2
8 -4 8 -14 0 -15 -3 -16 -14 -8 -19 16 -64 17 -58 1 3 -7 -1 -10 -9 -6 -8 3
-12 10 -8 17 4 6 -1 5 -10 -3 -9 -7 -17 -19 -17 -25 0 -7 4 -6 9 2 7 11 9 11
14 -1 3 -9 -2 -17 -14 -20 -10 -3 -17 -2 -14 3 3 4 -2 13 -9 19 -11 9 -16 9
-21 0 -4 -6 -1 -15 6 -20 9 -7 5 -8 -12 -3 -17 3 -30 1 -35 -7 -5 -9 -2 -10
10 -6 10 4 15 3 11 -3 -8 -12 -35 -13 -35 -1 0 5 -7 12 -16 15 -11 4 -15 2
-11 -8 3 -8 -2 -20 -10 -28 -14 -11 -16 -11 -10 4 3 9 0 21 -6 26 -9 8 -12 3
-13 -15 -2 -29 -9 -37 -24 -28 -8 5 -7 11 2 23 11 15 11 15 -2 5 -9 -6 -28
-13 -42 -15 -15 -2 -31 -8 -35 -13 -4 -4 -2 -5 5 -1 6 4 12 2 12 -3 0 -6 -5
-11 -11 -11 -5 0 -7 -4 -4 -10 3 -5 2 -10 -2 -10 -5 0 -14 10 -19 23 -6 12 -9
16 -7 8 2 -9 -2 -11 -13 -7 -14 5 -15 4 -5 -8 7 -9 8 -17 2 -20 -5 -3 -11 -1
-13 5 -2 5 -11 7 -21 4 -9 -4 -14 -11 -11 -16 3 -5 2 -9 -3 -10 -4 0 -18 -2
-30 -3 -19 -2 -21 0 -11 13 8 11 5 10 -8 -2 -16 -15 -17 -19 -4 -27 10 -7 5
-8 -19 -4 -22 5 -36 3 -41 -6 -7 -11 -14 -12 -37 -2 -27 12 -27 12 -8 -4 19
-16 19 -16 -10 -10 -27 5 -28 5 -7 -6 12 -6 22 -15 22 -20 0 -11 -14 -10 -26
2 -32 32 -34 -13 -32 -736 2 -475 6 -717 13 -714 6 3 10 32 10 64 0 56 2 60
28 69 23 7 26 12 16 23 -10 12 -9 13 5 8 9 -3 16 -1 16 5 0 6 16 27 36 46 31
30 40 45 43 76 1 4 30 15 66 24 36 10 66 22 66 26 1 5 2 14 3 21 2 16 23 21
32 7 5 -8 3 -10 -7 -4 -10 6 -11 5 -4 -3 17 -19 50 -3 65 31 8 18 22 41 32 51
10 11 18 26 18 33 0 7 5 13 12 13 6 0 9 3 5 6 -3 4 3 24 14 45 11 22 17 39 14
39 -18 0 66 92 121 131 59 44 79 60 135 112 10 9 22 17 26 17 18 0 117 88 141
126 15 24 35 43 45 44 9 0 17 5 17 10 0 6 7 10 15 10 8 0 16 5 16 10 1 6 3 15
4 20 1 6 3 14 4 18 0 4 10 8 21 9 12 1 30 12 41 25 11 13 17 17 14 10 -5 -10
1 -9 24 2 17 9 31 24 31 32 0 11 5 14 16 10 12 -5 15 -2 10 9 -3 9 1 18 9 21
8 4 15 13 15 21 0 8 4 11 10 8 5 -3 17 -2 26 3 15 8 15 10 -1 15 -9 4 -13 11
-10 17 4 7 13 7 26 0 10 -6 19 -7 18 -3 -4 22 3 32 16 27 16 -6 65 37 65 57 0
6 6 7 13 3 6 -4 9 -4 5 1 -14 15 24 63 54 69 16 3 27 10 23 15 -3 5 0 13 6 17
8 4 9 3 5 -4 -14 -23 13 -11 33 14 11 14 25 23 31 19 5 -3 16 -3 23 2 6 4 14
8 17 8 17 1 59 39 53 48 -3 6 -1 7 5 3 6 -4 20 2 32 14 11 11 31 20 45 20 14
0 25 4 25 8 0 4 16 7 35 7 21 -1 36 4 40 12 2 8 9 12 14 9 5 -4 11 -1 13 5 2
6 26 11 56 11 29 0 55 5 58 10 4 6 10 5 15 -3 7 -12 10 -12 18 -1 4 8 17 12
27 10 12 -2 18 2 16 10 -1 8 2 11 8 7 6 -3 8 -10 5 -15 -3 -4 1 -10 8 -13 8
-3 19 3 25 13 7 12 21 17 42 16 17 -1 34 2 37 7 4 6 1 7 -7 2 -9 -6 -11 -4 -5
5 7 11 10 10 19 -1 15 -20 57 -12 54 9 -2 11 3 16 13 14 8 -1 31 12 49 28 32
29 36 30 47 14 12 -16 17 -12 14 8 0 4 5 5 13 2 9 -3 19 6 27 25 7 16 17 27
22 24 4 -2 16 5 27 16 13 16 20 18 23 9 4 -9 6 -9 6 -1 1 9 10 8 35 -2 32 -14
35 -13 49 8 l15 22 -3 -27 c-2 -22 2 -28 16 -28 11 0 19 -4 19 -9 0 -5 7 -8
15 -7 19 3 44 26 28 26 -6 0 -13 7 -16 14 -4 10 -1 13 7 10 7 -3 16 2 20 11 3
10 12 15 21 11 9 -3 15 0 15 9 0 19 14 19 29 1 7 -8 21 -12 32 -9 14 4 17 9
10 16 -6 6 -5 15 6 25 14 14 13 17 -3 29 -10 7 -24 13 -31 13 -7 0 -13 6 -13
14 0 8 -20 27 -44 43 -55 35 -75 69 -45 78 11 4 26 2 33 -4 8 -6 22 -9 32 -5
16 5 16 4 4 -5 -13 -9 -12 -12 8 -17 12 -4 22 -11 22 -16 0 -5 5 -8 12 -6 6 2
20 -4 31 -15 10 -10 25 -16 34 -13 9 4 21 1 29 -5 17 -14 60 -1 46 13 -8 8 -4
17 14 30 23 18 35 46 15 33 -6 -3 -15 4 -22 16 -10 20 -9 21 9 17 14 -4 28 2
43 18 13 14 17 24 10 24 -7 0 -9 5 -6 10 3 6 -1 17 -9 26 -9 8 -16 22 -16 29
0 9 -6 12 -17 8 -12 -5 -14 -3 -8 8 5 8 5 11 -1 6 -5 -5 -9 -13 -9 -18 0 -5
-4 -9 -10 -10 -5 -1 -18 -5 -29 -11 -13 -7 -16 -7 -12 1 4 6 1 12 -6 12 -7 1
-17 2 -23 4 -5 1 -14 3 -20 4 -5 1 -1 6 10 11 18 8 18 9 2 9 -10 1 -32 -12
-48 -28z m21 5 c0 -2 -8 -10 -17 -17 -16 -13 -17 -12 -4 4 13 16 21 21 21 13z
m7 -38 c-3 -8 -6 -5 -6 6 -1 11 2 17 5 13 3 -3 4 -12 1 -19z m93 -3 c7 -9 8
-15 2 -15 -5 0 -12 7 -16 15 -3 8 -4 15 -2 15 2 0 9 -7 16 -15z m65 -35 c3 -5
-1 -10 -10 -10 -9 0 -13 5 -10 10 3 6 8 10 10 10 2 0 7 -4 10 -10z m-535 -4
c0 -2 -7 -6 -15 -10 -8 -3 -15 -1 -15 4 0 6 7 10 15 10 8 0 15 -2 15 -4z
m-288 -88 c-7 -7 -12 -8 -12 -2 0 14 12 26 19 19 2 -3 -1 -11 -7 -17z m-777
-198 c-3 -5 -12 -10 -18 -10 -7 0 -6 4 3 10 19 12 23 12 15 0z m-645 -170 c0
-5 -5 -10 -11 -10 -5 0 -7 5 -4 10 3 6 8 10 11 10 2 0 4 -4 4 -10z m-290 -90
c0 -5 -4 -10 -10 -10 -5 0 -10 5 -10 10 0 6 5 10 10 10 6 0 10 -4 10 -10z
m-236 -89 c3 -5 -5 -16 -17 -24 -19 -12 -24 -13 -24 -2 0 8 4 12 8 10 4 -3 9
2 13 10 6 17 12 19 20 6z m1006 -331 c0 -5 -5 -10 -11 -10 -5 0 -7 5 -4 10 3
6 8 10 11 10 2 0 4 -4 4 -10z"/>
<path d="M2800 3220 c0 -5 5 -10 11 -10 5 0 7 5 4 10 -3 6 -8 10 -11 10 -2 0
-4 -4 -4 -10z"/>
<path d="M5626 3167 c3 -10 9 -15 12 -12 3 3 0 11 -7 18 -10 9 -11 8 -5 -6z"/>
<path d="M5513 3144 c-3 -7 -2 -17 1 -22 6 -10 -9 -25 -35 -35 -12 -4 -16 -1
-12 13 3 10 -1 21 -8 25 -7 5 -10 4 -6 -2 8 -13 -38 -37 -57 -30 -9 4 -16 1
-16 -5 0 -7 -6 -4 -13 7 -8 10 -19 15 -25 11 -6 -3 -14 -1 -18 5 -4 8 -9 7
-15 -2 -5 -9 -3 -16 9 -20 10 -4 0 -7 -23 -7 -22 0 -48 4 -57 9 -11 6 -19 5
-24 -2 -3 -6 -15 -9 -25 -6 -10 3 -17 0 -16 -7 1 -7 -11 -10 -37 -8 -29 3 -36
1 -31 -9 6 -8 4 -10 -6 -3 -19 11 -37 15 -76 15 -19 0 -33 5 -33 12 0 7 -5 4
-11 -6 -6 -9 -14 -15 -18 -13 -4 3 -8 -6 -9 -20 -1 -13 -4 -35 -5 -48 -1 -13
-5 -22 -9 -19 -5 2 -8 -4 -9 -14 0 -16 -1 -16 -9 2 -7 17 -9 17 -9 2 -1 -9 -7
-16 -13 -15 -7 2 -12 -2 -11 -9 1 -6 -4 -14 -12 -17 -14 -5 -21 18 -16 47 1 5
-3 5 -9 2 -6 -4 -9 -19 -7 -33 2 -15 2 -21 0 -14 -7 19 -93 13 -94 -7 0 -10
-3 -8 -9 6 -8 20 -12 22 -35 11 -22 -10 -26 -21 -7 -24 17 -2 42 -17 42 -25 0
-10 -48 9 -72 29 -10 9 -18 10 -18 5 0 -6 6 -13 13 -16 15 -6 21 -57 6 -57 -6
0 -8 -9 -4 -21 6 -18 4 -20 -13 -15 -11 4 -23 3 -26 -2 -3 -6 4 -12 17 -16 17
-5 19 -8 9 -15 -8 -4 -14 -12 -14 -17 -2 -26 -21 -63 -31 -57 -6 3 -7 1 -3 -6
4 -6 -2 -28 -14 -47 -16 -28 -18 -39 -9 -50 8 -10 16 -11 32 -3 17 10 19 9 14
-5 -4 -9 -1 -16 5 -16 7 0 4 -6 -7 -13 -12 -9 -14 -16 -7 -21 12 -7 46 49 38
62 -3 4 0 14 6 22 8 12 9 12 4 -2 -6 -20 10 -25 17 -5 2 6 2 2 1 -10 -3 -15 2
-24 16 -28 26 -8 26 -27 0 -45 -11 -8 -20 -23 -20 -34 0 -18 4 -16 30 12 17
18 30 37 30 43 0 5 7 9 15 9 8 0 14 -6 12 -12 -1 -9 10 -12 39 -10 36 3 42 1
47 -20 4 -13 2 -24 -3 -26 -5 -2 -3 -10 5 -18 12 -13 12 -19 -5 -49 -22 -40
-15 -49 28 -34 30 10 47 33 37 49 -8 14 10 20 67 24 69 5 79 8 98 29 8 9 29
19 45 21 55 7 90 19 102 36 11 15 45 31 78 35 6 0 25 -2 43 -6 18 -4 32 -3 32
3 0 5 5 6 10 3 6 -3 10 0 10 7 0 29 25 66 53 76 25 9 29 15 24 38 -4 20 2 33
21 51 36 33 37 82 4 105 l-26 17 25 11 c25 11 49 51 49 82 0 19 16 25 22 7 5
-16 39 1 37 20 -1 9 -1 25 0 36 1 15 3 17 10 7 6 -10 10 -8 13 10 5 29 -18 57
-25 30 -4 -13 -5 -12 -6 4 0 12 -9 28 -18 35 -16 12 -17 12 -7 -1 9 -12 7 -19
-10 -35 -11 -11 -18 -16 -13 -10 4 5 7 18 7 28 0 17 -2 18 -17 6 -11 -10 -14
-10 -9 -1 4 7 2 12 -5 12 -7 0 -5 6 5 13 17 13 17 14 1 14 -9 0 -19 -6 -22
-13z m-153 -53 c0 -6 -4 -13 -10 -16 -5 -3 -10 1 -10 9 0 9 5 16 10 16 6 0 10
-4 10 -9z m-325 -41 c3 -5 1 -10 -4 -10 -6 0 -11 5 -11 10 0 6 2 10 4 10 3 0
8 -4 11 -10z m460 -190 c3 -6 -1 -7 -9 -4 -18 7 -21 14 -7 14 6 0 13 -4 16
-10z m-786 -152 c0 -7 -4 -22 -8 -32 -7 -18 -9 -16 -19 12 -10 29 -9 32 9 32
10 0 19 -6 18 -12z m687 -67 c-11 -11 -16 -12 -16 -3 0 7 -5 10 -11 7 -6 -4 0
13 13 36 l23 44 3 -34 c2 -21 -2 -40 -12 -50z"/>
<path d="M5320 3140 c-12 -7 -10 -9 7 -7 12 0 19 5 17 9 -6 10 -6 10 -24 -2z"/>
<path d="M5400 3115 c0 -8 4 -15 10 -15 5 0 7 7 4 15 -4 8 -8 15 -10 15 -2 0
-4 -7 -4 -15z"/>
<path d="M5268 3113 c7 -3 16 -2 19 1 4 3 -2 6 -13 5 -11 0 -14 -3 -6 -6z"/>
<path d="M5480 3110 c0 -5 7 -7 15 -4 8 4 15 8 15 10 0 2 -7 4 -15 4 -8 0 -15
-4 -15 -10z"/>
<path d="M3501 3073 c7 -12 15 -20 18 -17 3 2 -3 12 -13 22 -17 16 -18 16 -5
-5z"/>
<path d="M4870 3080 c0 -5 5 -10 11 -10 5 0 7 5 4 10 -3 6 -8 10 -11 10 -2 0
-4 -4 -4 -10z"/>
<path d="M4710 3071 c0 -6 4 -13 10 -16 6 -3 7 1 4 9 -7 18 -14 21 -14 7z"/>
<path d="M2867 3033 c-13 -13 -7 -21 13 -16 11 3 17 9 14 14 -6 11 -18 12 -27
2z"/>
<path d="M4695 3030 c-3 -5 -2 -10 4 -10 5 0 13 5 16 10 3 6 2 10 -4 10 -5 0
-13 -4 -16 -10z"/>
<path d="M1860 3010 c0 -5 5 -10 11 -10 5 0 7 5 4 10 -3 6 -8 10 -11 10 -2 0
-4 -4 -4 -10z"/>
<path d="M4889 3018 c-5 -16 -4 -46 2 -42 4 2 7 13 6 24 -1 17 -5 26 -8 18z"/>
<path d="M4791 2964 c13 -16 29 -19 29 -5 0 5 -9 11 -21 14 -16 4 -18 3 -8 -9z"/>
<path d="M1520 2936 c0 -2 7 -6 15 -10 8 -3 15 -1 15 4 0 6 -7 10 -15 10 -8 0
-15 -2 -15 -4z"/>
<path d="M1335 2880 c-3 -5 1 -10 10 -10 9 0 13 5 10 10 -3 6 -8 10 -10 10 -2
0 -7 -4 -10 -10z"/>
<path d="M2660 2856 c0 -9 5 -16 10 -16 6 0 10 4 10 9 0 6 -4 13 -10 16 -5 3
-10 -1 -10 -9z"/>
<path d="M2510 2786 c0 -2 9 -6 20 -9 11 -3 18 -1 14 4 -5 9 -34 13 -34 5z"/>
<path d="M4636 2533 c-8 -8 -13 -9 -41 -12 -24 -2 -18 -31 6 -31 13 0 19 5 16
13 -3 7 3 13 13 13 10 0 17 -3 14 -7 -2 -4 4 -13 13 -20 14 -12 15 -11 8 11
-9 31 -19 43 -29 33z"/>
<path d="M4696 2468 c3 -5 10 -6 15 -3 13 9 11 12 -6 12 -8 0 -12 -4 -9 -9z"/>
<path d="M4667 2453 c-11 -10 -8 -20 7 -26 10 -4 12 0 9 14 -6 21 -7 22 -16
12z"/>
<path d="M4597 2388 c-11 -12 -27 -18 -38 -15 -11 3 -19 0 -19 -6 0 -7 -4 -6
-10 3 -8 12 -11 12 -28 -3 -22 -20 -62 -23 -62 -4 0 8 -4 7 -10 -3 -9 -13 -12
-13 -25 4 -13 18 -16 18 -40 2 -21 -14 -25 -24 -25 -62 0 -33 4 -46 18 -51 9
-4 23 -13 31 -21 8 -7 22 -11 32 -9 10 3 26 -4 35 -14 22 -24 47 -25 40 -1 -8
23 33 72 61 75 14 1 29 16 47 49 38 70 34 101 -7 56z"/>
<path d="M3256 1770 c-10 -11 -16 -26 -12 -35 5 -14 10 -12 31 10 15 14 23 30
20 35 -9 14 -17 12 -39 -10z"/>
<path d="M10080 80 l0 -80 80 0 80 0 0 80 0 80 -80 0 -80 0 0 -80z"/>
</g>
</svg>
